<svg width="976" height="250" viewBox="0 0 976 250" fill="none" xmlns="http://www.w3.org/2000/svg">
<path opacity="0.889" fill-rule="evenodd" clip-rule="evenodd" d="M168 52.5C167.851 53.552 168.017 54.552 168.5 55.5C172.489 61.3175 176.989 66.6508 182 71.5C181.401 74.9631 180.401 78.2964 179 81.5C171.977 72.4685 165.311 63.1351 159 53.5C161.955 52.8413 164.955 52.5079 168 52.5Z" fill="black"/>
<path opacity="0.732" fill-rule="evenodd" clip-rule="evenodd" d="M168 52.5C179.723 53.8641 184.389 60.1975 182 71.5C176.989 66.6508 172.489 61.3175 168.5 55.5C168.017 54.552 167.851 53.552 168 52.5Z" fill="black"/>
<path opacity="0.928" fill-rule="evenodd" clip-rule="evenodd" d="M159 53.4998C165.311 63.1349 171.977 72.4683 179 81.4998C178.667 82.1665 178.333 82.8331 178 83.4998C169.846 74.6774 162.846 65.0108 157 54.4998C157.342 53.6616 158.008 53.3282 159 53.4998Z" fill="black"/>
<path opacity="0.931" fill-rule="evenodd" clip-rule="evenodd" d="M157 54.5001C162.846 65.0111 169.846 74.6777 178 83.5001C176.862 86.9131 175.529 90.2465 174 93.5001C164.424 81.3462 155.09 69.0128 146 56.5001C149.409 55.0967 153.075 54.43 157 54.5001Z" fill="black"/>
<path opacity="0.957" fill-rule="evenodd" clip-rule="evenodd" d="M146 56.5C155.09 69.0127 164.424 81.3461 174 93.5C172.667 97.1667 171.333 100.833 170 104.5C167.402 102.696 165.235 100.362 163.5 97.5C154.067 84.2827 144.9 70.9494 136 57.5C139.333 57.1667 142.667 56.8333 146 56.5Z" fill="black"/>
<path opacity="0.957" fill-rule="evenodd" clip-rule="evenodd" d="M136 57.5C144.9 70.9494 154.067 84.2827 163.5 97.5C165.235 100.362 167.402 102.696 170 104.5C169.23 108.703 167.896 112.703 166 116.5C151.857 98.2264 138.19 79.5597 125 60.5C128.546 59.3848 132.212 58.3848 136 57.5Z" fill="black"/>
<path opacity="0.966" fill-rule="evenodd" clip-rule="evenodd" d="M125 60.5001C138.19 79.5598 151.857 98.2265 166 116.5C164.314 120.576 162.647 124.576 161 128.5C146.313 105.788 130.646 83.7881 114 62.5001C117.409 61.0967 121.075 60.43 125 60.5001Z" fill="black"/>
<path opacity="0.981" fill-rule="evenodd" clip-rule="evenodd" d="M114 62.5C130.646 83.788 146.313 105.788 161 128.5C159.999 131.172 158.999 133.838 158 136.5C140.699 112.19 123.366 87.8567 106 63.5C108.627 62.9084 111.294 62.5751 114 62.5Z" fill="black"/>
<path opacity="0.834" fill-rule="evenodd" clip-rule="evenodd" d="M106 63.5C123.366 87.8567 140.699 112.19 158 136.5C157.102 141.535 155.435 146.201 153 150.5C150.102 145.428 146.602 140.761 142.5 136.5C141.491 134.975 140.991 133.308 141 131.5C146.167 130.256 147.334 127.256 144.5 122.5C133.122 109.458 122.122 96.1246 111.5 82.5C109.01 78.9899 105.844 77.9899 102 79.5C98.6256 74.9852 95.6256 70.3186 93 65.5C97.1732 64.6424 101.507 63.9758 106 63.5Z" fill="black"/>
<path opacity="0.865" fill-rule="evenodd" clip-rule="evenodd" d="M93 65.5C95.6256 70.3186 98.6256 74.9852 102 79.5C99.9082 82.0884 98.5749 85.0884 98 88.5C92.2255 81.7201 87.2255 74.3867 83 66.5C86.3333 66.1667 89.6667 65.8333 93 65.5Z" fill="black"/>
<path opacity="0.922" fill-rule="evenodd" clip-rule="evenodd" d="M83 66.5C87.2255 74.3867 92.2255 81.7201 98 88.5C96.3921 91.3821 95.0587 94.3821 94 97.5C86.5199 88.3603 79.8532 78.6937 74 68.5C77.0827 68.084 80.0827 67.4174 83 66.5Z" fill="black"/>
<path opacity="0.937" fill-rule="evenodd" clip-rule="evenodd" d="M74 68.5C79.8532 78.6937 86.5199 88.3603 94 97.5C92.9582 101.697 91.6249 105.697 90 109.5C89.0041 109.586 88.1708 109.252 87.5 108.5C78.7319 95.9484 70.2319 83.2818 62 70.5C66.0457 70.0479 70.0457 69.3813 74 68.5Z" fill="black"/>
<path opacity="0.83" fill-rule="evenodd" clip-rule="evenodd" d="M443 69.4998C450.341 69.3335 457.674 69.5001 465 69.9998C465.5 70.4998 466 70.9998 466.5 71.4998C467.167 77.8331 467.167 84.1665 466.5 90.4998C466 90.9998 465.5 91.4998 465 91.9998C457.667 92.6665 450.333 92.6665 443 91.9998C442.5 91.4998 442 90.9998 441.5 90.4998C440.833 84.1665 440.833 77.8331 441.5 71.4998C442.217 70.9556 442.717 70.2889 443 69.4998Z" fill="black"/>
<path opacity="0.832" fill-rule="evenodd" clip-rule="evenodd" d="M720 69.4998C727.008 69.3335 734.008 69.5002 741 69.9998C741.5 70.4998 742 70.9998 742.5 71.4998C743.167 77.8331 743.167 84.1665 742.5 90.4998C742 90.9998 741.5 91.4998 741 91.9998C737.5 92.1665 734 92.3331 730.5 92.4998C726.219 92.6005 722.052 92.1005 718 90.9998C716.857 84.5814 716.69 78.0814 717.5 71.4998C718.495 70.9339 719.328 70.2672 720 69.4998Z" fill="black"/>
<path opacity="0.952" fill-rule="evenodd" clip-rule="evenodd" d="M62 70.5C70.2319 83.2818 78.7319 95.9484 87.5 108.5C88.1708 109.252 89.0041 109.586 90 109.5C88.7274 114.319 87.0607 118.985 85 123.5C72.522 107.224 60.522 90.5575 49 73.5C53.3328 72.3905 57.6661 71.3905 62 70.5Z" fill="black"/>
<path opacity="0.965" fill-rule="evenodd" clip-rule="evenodd" d="M49 73.5C60.522 90.5575 72.522 107.224 85 123.5C84.1772 125.987 83.1772 128.321 82 130.5C80.5314 126.79 77.8647 124.457 74 123.5C74.4175 122.778 75.0842 122.278 76 122C74.1667 119.5 72.3333 117 70.5 114.5C69.7303 115.598 68.897 115.598 68 114.5C68.4175 113.778 69.0842 113.278 70 113C63.1314 104.097 56.6314 94.9302 50.5 85.5C49.3545 84.3157 48.1879 84.3157 47 85.5C45.5256 84.5637 44.5256 83.2303 44 81.5C43.869 80.7611 44.0357 80.0944 44.5 79.5C45.1543 80.6956 45.6543 80.6956 46 79.5C44.7371 77.9713 43.7371 76.3046 43 74.5C44.9352 73.8505 46.9352 73.5172 49 73.5Z" fill="black"/>
<path opacity="0.914" fill-rule="evenodd" clip-rule="evenodd" d="M373 119.5C372.834 114.156 373.001 108.823 373.5 103.5C375.751 101.623 378.251 100.123 381 99C386.499 92.2158 388.999 84.3825 388.5 75.5C389 75 389.5 74.5 390 74C397.333 73.3333 404.667 73.3333 412 74C412.5 74.5 413 75 413.5 75.5C414 83.8267 414.166 92.16 414 100.5C420.757 100.123 427.424 100.623 434 102C435.141 107.75 435.307 113.584 434.5 119.5C434 120 433.5 120.5 433 121C426.675 121.5 420.342 121.666 414 121.5C413.571 132.245 414.071 142.912 415.5 153.5C416.333 154.333 417.167 155.167 418 156C423.667 156.333 429.333 156.667 435 157C435.5 157.5 436 158 436.5 158.5C437.409 164.612 437.076 170.612 435.5 176.5C425.349 177.912 415.183 177.745 405 176C395.009 172.685 389.509 165.852 388.5 155.5C388 144.172 387.833 132.838 388 121.5C383.654 121.666 379.321 121.499 375 121C374.456 120.283 373.789 119.783 373 119.5Z" fill="black"/>
<path opacity="0.922" fill-rule="evenodd" clip-rule="evenodd" d="M233 75.4999C242.672 75.3334 252.339 75.5001 262 75.9999C262.525 76.6923 263.192 77.1923 264 77.4999C276.198 109.429 288.198 141.429 300 173.5C299.46 174.748 298.793 175.915 298 177C290 177.667 282 177.667 274 177C270.803 171.606 268.137 165.939 266 160C253.671 159.5 241.338 159.333 229 159.5C227.553 165.673 225.219 171.506 222 177C214 177.667 206 177.667 198 177C196.696 176.196 196.029 175.029 196 173.5C205.821 146.519 215.654 119.519 225.5 92.4999C227.725 86.6402 230.225 80.9735 233 75.4999ZM247 105.5C247.997 105.47 248.664 105.97 249 107C250.441 111.989 252.274 116.822 254.5 121.5C256.524 126.732 258.024 132.065 259 137.5C251.304 137.831 243.638 137.497 236 136.5C239.875 126.207 243.541 115.874 247 105.5Z" fill="black"/>
<path opacity="0.917" fill-rule="evenodd" clip-rule="evenodd" d="M621 75.4998C629.34 75.3334 637.673 75.5001 646 75.9998C646.5 76.4998 647 76.9998 647.5 77.4998C654.175 98.875 660.841 120.209 667.5 141.5C673.551 119.962 680.217 98.6283 687.5 77.4998C688 76.9998 688.5 76.4998 689 75.9998C697.579 75.1841 706.079 75.3508 714.5 76.4998C714.958 79.5574 714.624 82.5574 713.5 85.4998C705.298 110.438 697.298 135.438 689.5 160.5C688.143 166.592 685.643 172.092 682 177C672 177.667 662 177.667 652 177C651.5 176.5 651 176 650.5 175.5C640.131 143.392 629.964 111.226 620 78.9998C620.148 77.7439 620.482 76.5772 621 75.4998Z" fill="black"/>
<path opacity="0.905" fill-rule="evenodd" clip-rule="evenodd" d="M38.9998 77.5C41.0733 78.2995 42.74 79.6329 43.9998 81.5C44.5254 83.2303 45.5254 84.5637 46.9998 85.5C52.8456 96.011 59.8456 105.678 67.9998 114.5C69.7547 117.68 71.7547 120.68 73.9998 123.5C75.8435 127.192 78.1769 130.525 80.9998 133.5C79.5711 138.623 81.5711 141.289 86.9998 141.5C92.232 150.397 98.232 158.73 105 166.5C106.286 169.117 107.953 171.45 110 173.5C114.667 181.167 119.333 188.833 124 196.5C121.235 196.202 118.735 195.202 116.5 193.5C108.119 183.241 99.6188 173.074 90.9998 163C79.1582 164.445 67.3249 166.279 55.4998 168.5C53.1475 168.695 51.1475 168.028 49.4998 166.5C48.8331 163.833 48.8331 161.167 49.4998 158.5C52.9001 147.861 56.7334 137.361 60.9998 127C52.5162 116.513 44.0162 106.013 35.4998 95.5C34.0658 91.5935 33.7325 87.5935 34.4998 83.5C35.0659 80.7713 36.5659 78.7713 38.9998 77.5Z" fill="black"/>
<path fill-rule="evenodd" clip-rule="evenodd" d="M43 74.5C43.7371 76.3046 44.7371 77.9713 46 79.5C45.6543 80.6956 45.1543 80.6956 44.5 79.5C44.0357 80.0944 43.869 80.7611 44 81.5C42.7402 79.6329 41.0735 78.2995 39 77.5C39.9363 76.0256 41.2697 75.0256 43 74.5Z" fill="black"/>
<path fill-rule="evenodd" clip-rule="evenodd" d="M68 114.5C59.8458 105.678 52.8458 96.0106 47 85.4996C48.1879 84.3153 49.3545 84.3153 50.5 85.4996C56.6314 94.9298 63.1314 104.097 70 113C69.0842 113.278 68.4175 113.778 68 114.5Z" fill="black"/>
<path opacity="0.9" fill-rule="evenodd" clip-rule="evenodd" d="M373 119.5C374.673 123.594 374.34 127.427 372 131C364.333 131.667 356.667 131.667 349 131C346.82 128.136 344.82 125.136 343 122C336.31 117.937 330.81 119.104 326.5 125.5C324.539 134.827 324.539 144.161 326.5 153.5C326.874 154.416 327.374 155.25 328 156C332.232 158.484 336.565 158.818 341 157C344.117 154.458 346.783 151.458 349 148C357.049 147.198 365.049 147.365 373 148.5C373.834 159.223 369.501 167.39 360 173C343.993 181.616 327.993 181.616 312 173C305.435 168.383 300.935 162.216 298.5 154.5C297.833 144.167 297.833 133.833 298.5 123.5C303.482 110.184 312.982 102.351 327 100C339.883 98.1107 351.883 100.444 363 107C366.577 111.066 369.911 115.232 373 119.5Z" fill="black"/>
<path opacity="0.903" fill-rule="evenodd" clip-rule="evenodd" d="M581 99.5002C612.951 97.6177 628.117 112.617 626.5 144.5C626 145 625.5 145.5 625 146C608.99 146.167 592.99 146.667 577 147.5C577.999 156.678 582.999 160.845 592 160C595.232 158.77 597.899 156.77 600 154C608.049 153.198 616.049 153.365 624 154.5C625.445 161.459 623.112 166.959 617 171C597.823 182.608 578.823 182.275 560 170C549.282 154.427 547.115 137.594 553.5 119.5C556.154 114.367 559.654 109.867 564 106C569.558 103.207 575.225 101.041 581 99.5002ZM585 117.5C588.747 117.392 592.414 117.892 596 119C597.917 122.587 598.917 126.42 599 130.5C591.659 130.666 584.326 130.5 577 130C577.581 124.302 580.248 120.136 585 117.5Z" fill="black"/>
<path opacity="0.902" fill-rule="evenodd" clip-rule="evenodd" d="M780 99.5004C813.782 97.4413 828.782 112.941 825 146C808.99 146.167 792.99 146.667 777 147.5C777.409 157.421 782.409 161.588 792 160C794.667 158 797.333 156 800 154C807.333 153.333 814.667 153.333 822 154C824.7 154.949 825.533 156.783 824.5 159.5C820.877 168.417 814.377 174.25 805 177C787.27 182.521 771.437 179.354 757.5 167.5C750.471 155.777 748.138 143.11 750.5 129.5C752.036 119.315 756.87 111.149 765 105C769.947 102.692 774.947 100.859 780 99.5004ZM785 117.5C794.493 116.66 799.16 120.993 799 130.5C791.637 130.831 784.303 130.497 777 129.5C777.751 123.938 780.417 119.938 785 117.5Z" fill="black"/>
<path opacity="0.91" fill-rule="evenodd" clip-rule="evenodd" d="M444 100.5C450.342 100.334 456.675 100.5 463 101C464.266 101.309 465.433 101.809 466.5 102.5C467.167 126.833 467.167 151.167 466.5 175.5C466 176 465.5 176.5 465 177C457.087 177.814 449.254 177.647 441.5 176.5C440.833 151.833 440.833 127.167 441.5 102.5C442.495 101.934 443.328 101.267 444 100.5Z" fill="black"/>
<path opacity="0.898" fill-rule="evenodd" clip-rule="evenodd" d="M474 100.5C480.009 100.334 486.009 100.501 492 101C493.124 101.249 494.124 101.749 495 102.5C500.81 116.442 506.31 130.442 511.5 144.5C516.799 131.327 521.799 117.994 526.5 104.5C530.251 101.019 534.751 99.6858 540 100.5C543 100.667 546 100.833 549 101C551.894 101.869 553.061 103.702 552.5 106.5C543.149 129.197 533.815 151.863 524.5 174.5C523.667 175.333 522.833 176.167 522 177C514.42 177.813 506.92 177.647 499.5 176.5C488.976 152.952 479.143 129.119 470 105C470.844 102.993 472.177 101.493 474 100.5Z" fill="black"/>
<path opacity="0.908" fill-rule="evenodd" clip-rule="evenodd" d="M721 100.5C727.342 100.334 733.675 100.5 740 101C740.916 101.374 741.75 101.874 742.5 102.5C743.323 127.209 743.157 151.876 742 176.5C734.355 177.665 726.688 177.831 719 177C718.5 176.5 718 176 717.5 175.5C716.833 151.5 716.833 127.5 717.5 103.5C718.645 102.364 719.812 101.364 721 100.5Z" fill="black"/>
<path opacity="0.901" fill-rule="evenodd" clip-rule="evenodd" d="M829 100.5C834.344 100.334 839.677 100.501 845 101C846.266 101.309 847.433 101.809 848.5 102.5C853.429 115.548 857.429 128.881 860.5 142.5C865.02 128.939 869.52 115.439 874 102C878.911 100.508 883.911 100.174 889 101C890.786 101.785 892.286 102.951 893.5 104.5C896.509 117.193 900.509 129.527 905.5 141.5C908.554 128.669 912.221 116.002 916.5 103.5C917.671 102.107 919.171 101.273 921 101C927.112 100.091 933.112 100.424 939 102C940.825 103.466 941.325 105.299 940.5 107.5C933.354 129.741 926.354 152.074 919.5 174.5C918.667 175.333 917.833 176.167 917 177C910.333 177.667 903.667 177.667 897 177C892.198 164.561 887.532 152.061 883 139.5C878.1 151.3 873.766 163.3 870 175.5C869.475 176.192 868.808 176.692 868 177C861.333 177.667 854.667 177.667 848 177C839.741 153.223 832.075 129.223 825 105C825.844 102.993 827.177 101.493 829 100.5Z" fill="black"/>
<path fill-rule="evenodd" clip-rule="evenodd" d="M68 114.5C68.897 115.598 69.7303 115.598 70.5 114.5C72.3333 117 74.1667 119.5 76 122C75.0842 122.278 74.4175 122.778 74 123.5C71.7549 120.68 69.7549 117.68 68 114.5Z" fill="black"/>
<path opacity="0.892" fill-rule="evenodd" clip-rule="evenodd" d="M74 123.5C77.8647 124.457 80.5314 126.79 82 130.5C81.3902 131.391 81.0569 132.391 81 133.5C78.1771 130.525 75.8437 127.192 74 123.5Z" fill="black"/>
<path opacity="0.896" fill-rule="evenodd" clip-rule="evenodd" d="M141 131.5C140.991 133.308 141.491 134.975 142.5 136.5C146.602 140.761 150.102 145.428 153 150.5C152.401 153.963 151.401 157.296 150 160.5C142.467 152.308 136.134 143.308 131 133.5C134.261 132.622 137.594 131.956 141 131.5Z" fill="black"/>
<path opacity="0.929" fill-rule="evenodd" clip-rule="evenodd" d="M131 133.5C136.134 143.308 142.467 152.308 150 160.5C148.65 163.572 147.317 166.572 146 169.5C143.385 167.621 141.219 165.288 139.5 162.5C133.323 153.471 127.157 144.471 121 135.5C124.228 134.454 127.561 133.788 131 133.5Z" fill="black"/>
<path opacity="0.95" fill-rule="evenodd" clip-rule="evenodd" d="M121 135.5C127.157 144.471 133.323 153.471 139.5 162.5C141.219 165.288 143.385 167.621 146 169.5C144.785 173.632 143.451 177.632 142 181.5C140.483 181.489 139.316 180.823 138.5 179.5C128.447 165.62 118.614 151.62 109 137.5C112.954 136.619 116.954 135.952 121 135.5Z" fill="black"/>
<path opacity="0.958" fill-rule="evenodd" clip-rule="evenodd" d="M109 137.5C118.614 151.62 128.447 165.62 138.5 179.5C139.316 180.823 140.483 181.489 142 181.5C141.098 186.981 138.431 191.315 134 194.5C121.59 176.021 108.923 157.688 96 139.5C100.377 139.091 104.71 138.425 109 137.5Z" fill="black"/>
<path opacity="0.963" fill-rule="evenodd" clip-rule="evenodd" d="M96 139.5C108.923 157.688 121.59 176.021 134 194.5C132.203 195.73 130.203 196.396 128 196.5C128.149 195.448 127.983 194.448 127.5 193.5C122.833 186.833 118.167 180.167 113.5 173.5C112.355 172.316 111.188 172.316 110 173.5C110.925 169.705 109.258 167.372 105 166.5C105.418 165.778 106.084 165.278 107 165C101.332 156.789 95.3319 148.956 89 141.5C91.3333 140.833 93.6667 140.167 96 139.5Z" fill="black"/>
<path fill-rule="evenodd" clip-rule="evenodd" d="M87 141.5C87.6667 141.5 88.3333 141.5 89 141.5C95.3319 148.956 101.332 156.789 107 165C106.084 165.278 105.418 165.778 105 166.5C98.2322 158.73 92.2322 150.397 87 141.5Z" fill="black"/>
<path fill-rule="evenodd" clip-rule="evenodd" d="M105 166.5C109.258 167.372 110.925 169.705 110 173.5C107.953 171.45 106.286 169.117 105 166.5Z" fill="black"/>
<path fill-rule="evenodd" clip-rule="evenodd" d="M128 196.5C126.667 196.5 125.333 196.5 124 196.5C119.333 188.833 114.667 181.167 110 173.5C111.188 172.316 112.355 172.316 113.5 173.5C118.167 180.167 122.833 186.833 127.5 193.5C127.983 194.448 128.149 195.448 128 196.5Z" fill="black"/>
</svg>
