<?xml version="1.0" encoding="UTF-8"?>
<!DOCTYPE svg PUBLIC "-//W3C//DTD SVG 1.1//EN" "http://www.w3.org/Graphics/SVG/1.1/DTD/svg11.dtd">
<svg xmlns="http://www.w3.org/2000/svg" version="1.1" width="975px" height="250px" style="shape-rendering:geometricPrecision; text-rendering:geometricPrecision; image-rendering:optimizeQuality; fill-rule:evenodd; clip-rule:evenodd" xmlns:xlink="http://www.w3.org/1999/xlink">
<g><path style="opacity:0.889" fill="#008d5b" d="M 167.5,52.5 C 167.351,53.552 167.517,54.552 168,55.5C 171.989,61.3175 176.489,66.6508 181.5,71.5C 180.901,74.9631 179.901,78.2964 178.5,81.5C 171.477,72.4685 164.811,63.1351 158.5,53.5C 161.455,52.8413 164.455,52.5079 167.5,52.5 Z"/></g>
<g><path style="opacity:0.732" fill="#009159" d="M 167.5,52.5 C 179.223,53.8641 183.889,60.1975 181.5,71.5C 176.489,66.6508 171.989,61.3175 168,55.5C 167.517,54.552 167.351,53.552 167.5,52.5 Z"/></g>
<g><path style="opacity:0.928" fill="#008a5e" d="M 158.5,53.5 C 164.811,63.1351 171.477,72.4685 178.5,81.5C 178.167,82.1667 177.833,82.8333 177.5,83.5C 169.346,74.6776 162.346,65.011 156.5,54.5C 156.842,53.6618 157.508,53.3284 158.5,53.5 Z"/></g>
<g><path style="opacity:0.931" fill="#00865f" d="M 156.5,54.5 C 162.346,65.011 169.346,74.6776 177.5,83.5C 176.362,86.913 175.029,90.2464 173.5,93.5C 163.924,81.3461 154.59,69.0127 145.5,56.5C 148.909,55.0966 152.575,54.4299 156.5,54.5 Z"/></g>
<g><path style="opacity:0.957" fill="#007f61" d="M 145.5,56.5 C 154.59,69.0127 163.924,81.3461 173.5,93.5C 172.167,97.1667 170.833,100.833 169.5,104.5C 166.902,102.696 164.735,100.362 163,97.5C 153.567,84.2827 144.4,70.9494 135.5,57.5C 138.833,57.1667 142.167,56.8333 145.5,56.5 Z"/></g>
<g><path style="opacity:0.957" fill="#007963" d="M 135.5,57.5 C 144.4,70.9494 153.567,84.2827 163,97.5C 164.735,100.362 166.902,102.696 169.5,104.5C 168.73,108.703 167.396,112.703 165.5,116.5C 151.357,98.2264 137.69,79.5597 124.5,60.5C 128.046,59.3848 131.712,58.3848 135.5,57.5 Z"/></g>
<g><path style="opacity:0.966" fill="#007364" d="M 124.5,60.5 C 137.69,79.5597 151.357,98.2264 165.5,116.5C 163.814,120.576 162.147,124.576 160.5,128.5C 145.813,105.788 130.146,83.788 113.5,62.5C 116.909,61.0966 120.575,60.4299 124.5,60.5 Z"/></g>
<g><path style="opacity:0.981" fill="#006c66" d="M 113.5,62.5 C 130.146,83.788 145.813,105.788 160.5,128.5C 159.499,131.172 158.499,133.838 157.5,136.5C 140.199,112.19 122.866,87.8567 105.5,63.5C 108.127,62.9084 110.794,62.5751 113.5,62.5 Z"/></g>
<g><path style="opacity:0.834" fill="#006766" d="M 105.5,63.5 C 122.866,87.8567 140.199,112.19 157.5,136.5C 156.602,141.535 154.935,146.201 152.5,150.5C 149.602,145.428 146.102,140.761 142,136.5C 140.991,134.975 140.491,133.308 140.5,131.5C 145.667,130.256 146.834,127.256 144,122.5C 132.622,109.458 121.622,96.1246 111,82.5C 108.51,78.9899 105.344,77.9899 101.5,79.5C 98.1256,74.9852 95.1256,70.3186 92.5,65.5C 96.6732,64.6424 101.007,63.9758 105.5,63.5 Z"/></g>
<g><path style="opacity:0.865" fill="#006066" d="M 92.5,65.5 C 95.1256,70.3186 98.1256,74.9852 101.5,79.5C 99.4082,82.0884 98.0749,85.0884 97.5,88.5C 91.7255,81.7201 86.7255,74.3867 82.5,66.5C 85.8333,66.1667 89.1667,65.8333 92.5,65.5 Z"/></g>
<g><path style="opacity:0.922" fill="#005a66" d="M 82.5,66.5 C 86.7255,74.3867 91.7255,81.7201 97.5,88.5C 95.8921,91.3821 94.5587,94.3821 93.5,97.5C 86.0199,88.3603 79.3532,78.6937 73.5,68.5C 76.5827,68.084 79.5827,67.4174 82.5,66.5 Z"/></g>
<g><path style="opacity:0.937" fill="#005466" d="M 73.5,68.5 C 79.3532,78.6937 86.0199,88.3603 93.5,97.5C 92.4582,101.697 91.1249,105.697 89.5,109.5C 88.5041,109.586 87.6708,109.252 87,108.5C 78.2319,95.9484 69.7319,83.2818 61.5,70.5C 65.5457,70.0479 69.5457,69.3813 73.5,68.5 Z"/></g>
<g><path style="opacity:0.83" fill="#181918" d="M 442.5,69.5 C 449.841,69.3337 457.174,69.5003 464.5,70C 465,70.5 465.5,71 466,71.5C 466.667,77.8333 466.667,84.1667 466,90.5C 465.5,91 465,91.5 464.5,92C 457.167,92.6667 449.833,92.6667 442.5,92C 442,91.5 441.5,91 441,90.5C 440.333,84.1667 440.333,77.8333 441,71.5C 441.717,70.9558 442.217,70.2891 442.5,69.5 Z"/></g>
<g><path style="opacity:0.832" fill="#181918" d="M 719.5,69.5 C 726.508,69.3337 733.508,69.5004 740.5,70C 741,70.5 741.5,71 742,71.5C 742.667,77.8333 742.667,84.1667 742,90.5C 741.5,91 741,91.5 740.5,92C 737,92.1667 733.5,92.3333 730,92.5C 725.719,92.6007 721.552,92.1007 717.5,91C 716.357,84.5816 716.19,78.0816 717,71.5C 717.995,70.9341 718.828,70.2674 719.5,69.5 Z"/></g>
<g><path style="opacity:0.952" fill="#004e65" d="M 61.5,70.5 C 69.7319,83.2818 78.2319,95.9484 87,108.5C 87.6708,109.252 88.5041,109.586 89.5,109.5C 88.2274,114.319 86.5607,118.985 84.5,123.5C 72.022,107.224 60.022,90.5575 48.5,73.5C 52.8328,72.3905 57.1661,71.3905 61.5,70.5 Z"/></g>
<g><path style="opacity:0.965" fill="#004864" d="M 48.5,73.5 C 60.022,90.5575 72.022,107.224 84.5,123.5C 83.6772,125.987 82.6772,128.321 81.5,130.5C 80.0314,126.79 77.3647,124.457 73.5,123.5C 73.9175,122.778 74.5842,122.278 75.5,122C 73.6667,119.5 71.8333,117 70,114.5C 69.2303,115.598 68.397,115.598 67.5,114.5C 67.9175,113.778 68.5842,113.278 69.5,113C 62.6314,104.097 56.1314,94.9302 50,85.5C 48.8545,84.3157 47.6879,84.3157 46.5,85.5C 45.0256,84.5637 44.0256,83.2303 43.5,81.5C 43.369,80.7611 43.5357,80.0944 44,79.5C 44.6543,80.6956 45.1543,80.6956 45.5,79.5C 44.2371,77.9713 43.2371,76.3046 42.5,74.5C 44.4352,73.8505 46.4352,73.5172 48.5,73.5 Z"/></g>
<g><path style="opacity:0.914" fill="#181918" d="M 372.5,119.5 C 372.334,114.156 372.501,108.823 373,103.5C 375.251,101.623 377.751,100.123 380.5,99C 385.999,92.2158 388.499,84.3825 388,75.5C 388.5,75 389,74.5 389.5,74C 396.833,73.3333 404.167,73.3333 411.5,74C 412,74.5 412.5,75 413,75.5C 413.5,83.8267 413.666,92.16 413.5,100.5C 420.257,100.123 426.924,100.623 433.5,102C 434.641,107.75 434.807,113.584 434,119.5C 433.5,120 433,120.5 432.5,121C 426.175,121.5 419.842,121.666 413.5,121.5C 413.071,132.245 413.571,142.912 415,153.5C 415.833,154.333 416.667,155.167 417.5,156C 423.167,156.333 428.833,156.667 434.5,157C 435,157.5 435.5,158 436,158.5C 436.909,164.612 436.576,170.612 435,176.5C 424.849,177.912 414.683,177.745 404.5,176C 394.509,172.685 389.009,165.852 388,155.5C 387.5,144.172 387.333,132.838 387.5,121.5C 383.154,121.666 378.821,121.499 374.5,121C 373.956,120.283 373.289,119.783 372.5,119.5 Z"/></g>
<g><path style="opacity:0.922" fill="#181918" d="M 232.5,75.5 C 242.172,75.3335 251.839,75.5002 261.5,76C 262.025,76.6924 262.692,77.1924 263.5,77.5C 275.698,109.429 287.698,141.429 299.5,173.5C 298.96,174.748 298.293,175.915 297.5,177C 289.5,177.667 281.5,177.667 273.5,177C 270.303,171.606 267.637,165.939 265.5,160C 253.171,159.5 240.838,159.333 228.5,159.5C 227.053,165.673 224.719,171.506 221.5,177C 213.5,177.667 205.5,177.667 197.5,177C 196.196,176.196 195.529,175.029 195.5,173.5C 205.321,146.519 215.154,119.519 225,92.5C 227.225,86.6403 229.725,80.9736 232.5,75.5 Z M 246.5,105.5 C 247.497,105.47 248.164,105.97 248.5,107C 249.941,111.989 251.774,116.822 254,121.5C 256.024,126.732 257.524,132.065 258.5,137.5C 250.804,137.831 243.138,137.497 235.5,136.5C 239.375,126.207 243.041,115.874 246.5,105.5 Z"/></g>
<g><path style="opacity:0.917" fill="#181918" d="M 620.5,75.5 C 628.84,75.3336 637.173,75.5003 645.5,76C 646,76.5 646.5,77 647,77.5C 653.675,98.8752 660.341,120.209 667,141.5C 673.051,119.962 679.717,98.6285 687,77.5C 687.5,77 688,76.5 688.5,76C 697.079,75.1843 705.579,75.351 714,76.5C 714.458,79.5576 714.124,82.5576 713,85.5C 704.798,110.438 696.798,135.438 689,160.5C 687.643,166.592 685.143,172.092 681.5,177C 671.5,177.667 661.5,177.667 651.5,177C 651,176.5 650.5,176 650,175.5C 639.631,143.392 629.464,111.226 619.5,79C 619.648,77.7441 619.982,76.5774 620.5,75.5 Z"/></g>
<g><path style="opacity:0.905" fill="#004162" d="M 38.5,77.5 C 40.5735,78.2995 42.2402,79.6329 43.5,81.5C 44.0256,83.2303 45.0256,84.5637 46.5,85.5C 52.3458,96.011 59.3458,105.678 67.5,114.5C 69.2549,117.68 71.2549,120.68 73.5,123.5C 75.3437,127.192 77.6771,130.525 80.5,133.5C 79.0713,138.623 81.0713,141.289 86.5,141.5C 91.7322,150.397 97.7322,158.73 104.5,166.5C 105.786,169.117 107.453,171.45 109.5,173.5C 114.167,181.167 118.833,188.833 123.5,196.5C 120.735,196.202 118.235,195.202 116,193.5C 107.619,183.241 99.119,173.074 90.5,163C 78.6584,164.445 66.8251,166.279 55,168.5C 52.6477,168.695 50.6477,168.028 49,166.5C 48.3333,163.833 48.3333,161.167 49,158.5C 52.4003,147.861 56.2336,137.361 60.5,127C 52.0164,116.513 43.5164,106.013 35,95.5C 33.566,91.5935 33.2327,87.5935 34,83.5C 34.5661,80.7713 36.0661,78.7713 38.5,77.5 Z"/></g>
<g><path style="opacity:1" fill="#004563" d="M 42.5,74.5 C 43.2371,76.3046 44.2371,77.9713 45.5,79.5C 45.1543,80.6956 44.6543,80.6956 44,79.5C 43.5357,80.0944 43.369,80.7611 43.5,81.5C 42.2402,79.6329 40.5735,78.2995 38.5,77.5C 39.4363,76.0256 40.7697,75.0256 42.5,74.5 Z"/></g>
<g><path style="opacity:1" fill="#004563" d="M 67.5,114.5 C 59.3458,105.678 52.3458,96.011 46.5,85.5C 47.6879,84.3157 48.8545,84.3157 50,85.5C 56.1314,94.9302 62.6314,104.097 69.5,113C 68.5842,113.278 67.9175,113.778 67.5,114.5 Z"/></g>
<g><path style="opacity:0.9" fill="#181918" d="M 372.5,119.5 C 374.173,123.594 373.84,127.427 371.5,131C 363.833,131.667 356.167,131.667 348.5,131C 346.32,128.136 344.32,125.136 342.5,122C 335.81,117.937 330.31,119.104 326,125.5C 324.039,134.827 324.039,144.161 326,153.5C 326.374,154.416 326.874,155.25 327.5,156C 331.732,158.484 336.065,158.818 340.5,157C 343.617,154.458 346.283,151.458 348.5,148C 356.549,147.198 364.549,147.365 372.5,148.5C 373.334,159.223 369.001,167.39 359.5,173C 343.493,181.616 327.493,181.616 311.5,173C 304.935,168.383 300.435,162.216 298,154.5C 297.333,144.167 297.333,133.833 298,123.5C 302.982,110.184 312.482,102.351 326.5,100C 339.383,98.1103 351.383,100.444 362.5,107C 366.077,111.066 369.411,115.232 372.5,119.5 Z"/></g>
<g><path style="opacity:0.903" fill="#181918" d="M 580.5,99.5 C 612.451,97.6175 627.617,112.617 626,144.5C 625.5,145 625,145.5 624.5,146C 608.49,146.167 592.49,146.667 576.5,147.5C 577.499,156.678 582.499,160.845 591.5,160C 594.732,158.77 597.399,156.77 599.5,154C 607.549,153.198 615.549,153.365 623.5,154.5C 624.945,161.459 622.612,166.959 616.5,171C 597.323,182.608 578.323,182.275 559.5,170C 548.782,154.427 546.615,137.594 553,119.5C 555.654,114.367 559.154,109.867 563.5,106C 569.058,103.207 574.725,101.041 580.5,99.5 Z M 584.5,117.5 C 588.247,117.392 591.914,117.892 595.5,119C 597.417,122.587 598.417,126.42 598.5,130.5C 591.159,130.666 583.826,130.5 576.5,130C 577.081,124.302 579.748,120.136 584.5,117.5 Z"/></g>
<g><path style="opacity:0.902" fill="#181918" d="M 779.5,99.5 C 813.282,97.4409 828.282,112.941 824.5,146C 808.49,146.167 792.49,146.667 776.5,147.5C 776.909,157.421 781.909,161.588 791.5,160C 794.167,158 796.833,156 799.5,154C 806.833,153.333 814.167,153.333 821.5,154C 824.2,154.949 825.033,156.783 824,159.5C 820.377,168.417 813.877,174.25 804.5,177C 786.77,182.521 770.937,179.354 757,167.5C 749.971,155.777 747.638,143.11 750,129.5C 751.536,119.315 756.37,111.149 764.5,105C 769.447,102.692 774.447,100.859 779.5,99.5 Z M 784.5,117.5 C 793.993,116.66 798.66,120.993 798.5,130.5C 791.137,130.831 783.803,130.497 776.5,129.5C 777.251,123.938 779.917,119.938 784.5,117.5 Z"/></g>
<g><path style="opacity:0.91" fill="#181918" d="M 443.5,100.5 C 449.842,100.334 456.175,100.5 462.5,101C 463.766,101.309 464.933,101.809 466,102.5C 466.667,126.833 466.667,151.167 466,175.5C 465.5,176 465,176.5 464.5,177C 456.587,177.814 448.754,177.647 441,176.5C 440.333,151.833 440.333,127.167 441,102.5C 441.995,101.934 442.828,101.267 443.5,100.5 Z"/></g>
<g><path style="opacity:0.898" fill="#181918" d="M 473.5,100.5 C 479.509,100.334 485.509,100.501 491.5,101C 492.624,101.249 493.624,101.749 494.5,102.5C 500.31,116.442 505.81,130.442 511,144.5C 516.299,131.327 521.299,117.994 526,104.5C 529.751,101.019 534.251,99.6857 539.5,100.5C 542.5,100.667 545.5,100.833 548.5,101C 551.394,101.869 552.561,103.702 552,106.5C 542.649,129.197 533.315,151.863 524,174.5C 523.167,175.333 522.333,176.167 521.5,177C 513.92,177.813 506.42,177.647 499,176.5C 488.476,152.952 478.643,129.119 469.5,105C 470.344,102.993 471.677,101.493 473.5,100.5 Z"/></g>
<g><path style="opacity:0.908" fill="#181918" d="M 720.5,100.5 C 726.842,100.334 733.175,100.5 739.5,101C 740.416,101.374 741.25,101.874 742,102.5C 742.823,127.209 742.657,151.876 741.5,176.5C 733.855,177.665 726.188,177.831 718.5,177C 718,176.5 717.5,176 717,175.5C 716.333,151.5 716.333,127.5 717,103.5C 718.145,102.364 719.312,101.364 720.5,100.5 Z"/></g>
<g><path style="opacity:0.901" fill="#181918" d="M 828.5,100.5 C 833.844,100.334 839.177,100.501 844.5,101C 845.766,101.309 846.933,101.809 848,102.5C 852.929,115.548 856.929,128.881 860,142.5C 864.52,128.939 869.02,115.439 873.5,102C 878.411,100.508 883.411,100.174 888.5,101C 890.286,101.785 891.786,102.951 893,104.5C 896.009,117.193 900.009,129.527 905,141.5C 908.054,128.669 911.721,116.002 916,103.5C 917.171,102.107 918.671,101.273 920.5,101C 926.612,100.091 932.612,100.424 938.5,102C 940.325,103.466 940.825,105.299 940,107.5C 932.854,129.741 925.854,152.074 919,174.5C 918.167,175.333 917.333,176.167 916.5,177C 909.833,177.667 903.167,177.667 896.5,177C 891.698,164.561 887.032,152.061 882.5,139.5C 877.6,151.3 873.266,163.3 869.5,175.5C 868.975,176.192 868.308,176.692 867.5,177C 860.833,177.667 854.167,177.667 847.5,177C 839.241,153.223 831.575,129.223 824.5,105C 825.344,102.993 826.677,101.493 828.5,100.5 Z"/></g>
<g><path style="opacity:1" fill="#004563" d="M 67.5,114.5 C 68.397,115.598 69.2303,115.598 70,114.5C 71.8333,117 73.6667,119.5 75.5,122C 74.5842,122.278 73.9175,122.778 73.5,123.5C 71.2549,120.68 69.2549,117.68 67.5,114.5 Z"/></g>
<g><path style="opacity:0.892" fill="#004563" d="M 73.5,123.5 C 77.3647,124.457 80.0314,126.79 81.5,130.5C 80.8902,131.391 80.5569,132.391 80.5,133.5C 77.6771,130.525 75.3437,127.192 73.5,123.5 Z"/></g>
<g><path style="opacity:0.896" fill="#006066" d="M 140.5,131.5 C 140.491,133.308 140.991,134.975 142,136.5C 146.102,140.761 149.602,145.428 152.5,150.5C 151.901,153.963 150.901,157.296 149.5,160.5C 141.967,152.308 135.634,143.308 130.5,133.5C 133.761,132.622 137.094,131.956 140.5,131.5 Z"/></g>
<g><path style="opacity:0.929" fill="#005a66" d="M 130.5,133.5 C 135.634,143.308 141.967,152.308 149.5,160.5C 148.15,163.572 146.817,166.572 145.5,169.5C 142.885,167.621 140.719,165.288 139,162.5C 132.823,153.471 126.657,144.471 120.5,135.5C 123.728,134.454 127.061,133.788 130.5,133.5 Z"/></g>
<g><path style="opacity:0.95" fill="#005466" d="M 120.5,135.5 C 126.657,144.471 132.823,153.471 139,162.5C 140.719,165.288 142.885,167.621 145.5,169.5C 144.285,173.632 142.951,177.632 141.5,181.5C 139.983,181.489 138.816,180.823 138,179.5C 127.947,165.62 118.114,151.62 108.5,137.5C 112.454,136.619 116.454,135.952 120.5,135.5 Z"/></g>
<g><path style="opacity:0.958" fill="#004e65" d="M 108.5,137.5 C 118.114,151.62 127.947,165.62 138,179.5C 138.816,180.823 139.983,181.489 141.5,181.5C 140.598,186.981 137.931,191.315 133.5,194.5C 121.09,176.021 108.423,157.688 95.5,139.5C 99.8765,139.091 104.21,138.425 108.5,137.5 Z"/></g>
<g><path style="opacity:0.963" fill="#004864" d="M 95.5,139.5 C 108.423,157.688 121.09,176.021 133.5,194.5C 131.703,195.73 129.703,196.396 127.5,196.5C 127.649,195.448 127.483,194.448 127,193.5C 122.333,186.833 117.667,180.167 113,173.5C 111.855,172.316 110.688,172.316 109.5,173.5C 110.425,169.705 108.758,167.372 104.5,166.5C 104.918,165.778 105.584,165.278 106.5,165C 100.832,156.789 94.8319,148.956 88.5,141.5C 90.8333,140.833 93.1667,140.167 95.5,139.5 Z"/></g>
<g><path style="opacity:1" fill="#004563" d="M 86.5,141.5 C 87.1667,141.5 87.8333,141.5 88.5,141.5C 94.8319,148.956 100.832,156.789 106.5,165C 105.584,165.278 104.918,165.778 104.5,166.5C 97.7322,158.73 91.7322,150.397 86.5,141.5 Z"/></g>
<g><path style="opacity:1" fill="#004563" d="M 104.5,166.5 C 108.758,167.372 110.425,169.705 109.5,173.5C 107.453,171.45 105.786,169.117 104.5,166.5 Z"/></g>
<g><path style="opacity:1" fill="#004563" d="M 127.5,196.5 C 126.167,196.5 124.833,196.5 123.5,196.5C 118.833,188.833 114.167,181.167 109.5,173.5C 110.688,172.316 111.855,172.316 113,173.5C 117.667,180.167 122.333,186.833 127,193.5C 127.483,194.448 127.649,195.448 127.5,196.5 Z"/></g>
</svg>
