<svg width="801" height="800" viewBox="0 0 801 800" fill="none" xmlns="http://www.w3.org/2000/svg">
<g clip-path="url(#clip0_249_170)">
<path fill-rule="evenodd" clip-rule="evenodd" d="M496.78 467.93C450.464 502.175 383.096 520.421 324.991 520.421C243.587 520.421 170.605 490.386 115.026 440.421C110.815 436.491 114.464 431.158 119.798 434.245C179.587 469.052 253.412 489.824 329.763 489.824C381.131 489.824 437.833 479.158 490.043 456.982C497.903 453.894 504.359 462.316 496.78 467.93Z" fill="black"/>
<path fill-rule="evenodd" clip-rule="evenodd" d="M516.149 445.754C510.254 438.175 476.851 442.105 461.973 444.07C457.482 444.631 456.64 440.701 460.851 437.894C487.517 419.087 531.026 424.701 536.079 430.877C541.131 437.052 534.675 480.842 509.693 501.614C505.763 504.701 502.114 503.017 503.798 498.807C509.412 484.772 522.044 453.614 516.149 445.754Z" fill="black"/>
<path fill-rule="evenodd" clip-rule="evenodd" d="M462.816 305.965V287.719C462.816 284.912 464.781 283.228 467.307 283.228H548.71C551.237 283.228 553.482 285.193 553.482 287.719V303.158C553.482 305.684 551.237 309.053 547.307 314.667L505.202 374.737C520.921 374.456 537.482 376.702 551.518 384.562C554.605 386.246 555.447 389.053 555.728 391.579V410.947C555.728 413.755 552.921 416.842 549.833 415.158C524.851 401.965 491.447 400.562 463.939 415.439C461.132 416.842 458.044 414.035 458.044 411.228V392.702C458.044 389.895 458.044 384.842 461.132 380.351L509.974 310.456H467.588C465.061 310.456 462.816 308.491 462.816 305.965ZM166.114 419.088H141.412C139.167 418.807 137.202 417.123 136.921 414.877V288C136.921 285.474 139.167 283.509 141.693 283.509H164.711C167.237 283.509 168.921 285.474 169.202 287.719V304.281H169.763C175.658 288.281 187.167 280.702 202.325 280.702C217.763 280.702 227.588 288.281 234.325 304.281C240.219 288.281 253.974 280.702 268.57 280.702C278.956 280.702 290.184 284.912 297.202 294.737C305.061 305.404 303.377 320.842 303.377 334.597V414.877C303.377 417.404 301.132 419.369 298.605 419.369H274.184C271.658 419.088 269.693 417.123 269.693 414.877V347.509C269.693 342.176 270.254 328.702 269.132 323.649C267.167 315.228 261.833 312.702 254.535 312.702C248.64 312.702 242.184 316.632 239.658 323.088C237.132 329.544 237.412 340.211 237.412 347.509V414.877C237.412 417.404 235.167 419.369 232.64 419.369H207.939C205.412 419.088 203.447 417.123 203.447 414.877V347.509C203.447 333.474 205.693 312.421 188.289 312.421C170.605 312.421 171.167 332.632 171.167 347.509V414.877C170.886 417.123 168.921 419.088 166.114 419.088ZM623.658 280.702C660.43 280.702 680.36 312.14 680.36 352.281C680.36 391.018 658.465 421.895 623.658 421.895C587.728 421.895 568.079 390.456 568.079 351.158C567.798 311.579 587.728 280.702 623.658 280.702ZM623.658 306.807C605.412 306.807 604.289 331.79 604.289 347.228C604.289 362.667 604.009 395.79 623.377 395.79C642.465 395.79 643.588 369.123 643.588 352.842C643.588 342.176 643.026 329.263 639.939 319.158C637.132 310.176 631.518 306.807 623.658 306.807ZM727.798 419.088H703.096C700.57 418.807 698.605 416.842 698.605 414.597V287.439C698.886 285.193 700.851 283.228 703.377 283.228H726.395C728.64 283.228 730.325 284.912 730.886 286.877V306.246H731.447C738.465 288.842 748.009 280.702 765.132 280.702C776.079 280.702 787.026 284.632 794.044 295.579C800.5 305.684 800.5 322.807 800.5 335.158V415.158C800.219 417.404 798.254 419.088 795.728 419.088H771.026C768.781 418.807 766.816 417.123 766.535 415.158V346.105C766.535 332.07 768.219 311.86 751.096 311.86C745.202 311.86 739.588 315.79 736.781 321.965C733.412 329.825 732.851 337.404 732.851 346.105V414.597C732.57 417.123 730.325 419.088 727.798 419.088ZM397.974 358.456C397.974 368 398.254 376.141 393.482 384.842C389.553 391.86 383.377 396.07 376.36 396.07C366.816 396.07 361.202 388.772 361.202 378.105C361.202 357.053 380.009 353.123 397.974 353.123V358.456ZM422.956 418.807C421.272 420.211 419.026 420.491 417.061 419.369C408.921 412.632 407.237 409.263 402.746 402.807C389.272 416.562 379.447 420.772 362.044 420.772C341.272 420.772 324.991 407.86 324.991 382.316C324.991 362.105 335.939 348.632 351.377 341.895C364.851 336 383.658 334.877 397.974 333.193V330.105C397.974 324.211 398.535 317.193 394.886 312.141C391.798 307.649 386.184 305.684 381.132 305.684C371.588 305.684 363.167 310.456 361.202 320.562C360.64 322.807 359.237 325.053 356.991 325.053L333.132 322.526C331.167 321.965 328.921 320.562 329.482 317.474C335.097 288.281 361.202 279.579 384.781 279.579C396.851 279.579 412.57 282.667 422.114 291.93C434.184 303.158 433.061 318.316 433.061 334.597V373.053C433.061 384.562 437.833 389.614 442.325 396.07C444.009 398.316 444.289 401.123 442.325 402.526C436.991 406.737 428.009 414.597 422.956 418.807ZM73.7632 358.456C73.7632 368 74.0439 376.141 69.2719 384.842C65.3421 391.86 59.1666 396.07 52.1491 396.07C42.6052 396.07 36.9912 388.772 36.9912 378.105C36.9912 357.053 55.7983 353.123 73.7632 353.123V358.456ZM98.4649 418.807C96.7807 420.211 94.5351 420.491 92.5702 419.369C84.4298 412.632 82.7456 409.263 78.2544 402.807C64.7807 416.562 54.9561 420.772 37.5526 420.772C16.7807 420.772 0.5 407.86 0.5 382.316C0.5 362.105 11.4474 348.632 26.8859 341.895C40.3596 336 59.1667 334.877 73.4825 333.193V330.105C73.4825 324.211 74.0438 317.193 70.3947 312.141C67.307 307.649 61.693 305.684 56.6404 305.684C47.0965 305.684 38.6754 310.456 36.7105 320.562C36.1491 322.807 34.7456 325.053 32.5 325.053L8.64033 322.526C6.67542 321.965 4.42984 320.562 4.99125 317.474C10.6053 288.281 36.7105 279.579 60.2895 279.579C72.3597 279.579 88.079 282.667 97.6228 291.93C109.693 303.158 108.57 318.316 108.57 334.597V373.053C108.57 384.562 113.342 389.614 117.833 396.07C119.518 398.316 119.798 401.123 117.833 402.526C112.5 406.737 103.518 414.597 98.4649 418.807Z" fill="black"/>
</g>
<defs>
<clipPath id="clip0_249_170">
<rect width="800" height="800" fill="white" transform="translate(0.5)"/>
</clipPath>
</defs>
</svg>
