<svg width="801" height="800" viewBox="0 0 801 800" fill="none" xmlns="http://www.w3.org/2000/svg">
<path d="M775.583 429.175L797.775 443.97C790.573 454.579 773.344 472.781 743.559 472.781C706.572 472.781 679.025 444.164 679.025 407.761C679.025 369.021 706.864 342.74 740.444 342.74C774.22 342.74 790.767 369.605 796.121 384.108L799.041 391.506L712.022 427.52C718.641 440.563 728.959 447.182 743.559 447.182C758.16 447.182 768.283 439.979 775.583 429.175ZM707.35 405.717L765.46 381.577C762.248 373.498 752.709 367.756 741.32 367.756C726.817 367.756 706.669 380.604 707.35 405.717Z" fill="black"/>
<path d="M637.073 276.454H665.106V466.843H637.073V276.454Z" fill="black"/>
<path d="M592.882 347.801H619.942V463.437C619.942 511.423 591.617 531.183 558.133 531.183C526.596 531.183 507.616 509.963 500.51 492.735L525.331 482.417C529.809 493.027 540.613 505.583 558.133 505.583C579.645 505.583 592.882 492.248 592.882 467.33V457.986H591.909C585.485 465.773 573.22 472.781 557.647 472.781C525.136 472.781 495.352 444.456 495.352 407.955C495.352 371.259 525.136 342.643 557.647 342.643C573.123 342.643 585.485 349.553 591.909 357.146H592.882V347.801ZM594.829 407.955C594.829 384.984 579.547 368.242 560.08 368.242C540.418 368.242 523.871 384.984 523.871 407.955C523.871 430.634 540.418 447.084 560.08 447.084C579.547 447.182 594.829 430.634 594.829 407.955Z" fill="black"/>
<path d="M341.463 407.468C341.463 444.943 312.262 472.489 276.442 472.489C240.623 472.489 211.422 444.845 211.422 407.468C211.422 369.799 240.623 342.351 276.442 342.351C312.262 342.351 341.463 369.799 341.463 407.468ZM313.041 407.468C313.041 384.108 296.104 368.047 276.442 368.047C256.78 368.047 239.844 384.108 239.844 407.468C239.844 430.634 256.78 446.89 276.442 446.89C296.104 446.89 313.041 430.634 313.041 407.468Z" fill="black"/>
<path d="M483.477 407.761C483.477 445.235 454.276 472.781 418.456 472.781C382.636 472.781 353.436 445.235 353.436 407.761C353.436 370.092 382.636 342.74 418.456 342.74C454.276 342.74 483.477 369.994 483.477 407.761ZM454.957 407.761C454.957 384.4 438.021 368.34 418.359 368.34C398.697 368.34 381.76 384.4 381.76 407.761C381.76 430.927 398.697 447.182 418.359 447.182C438.118 447.182 454.957 430.829 454.957 407.761Z" fill="black"/>
<path d="M104.547 444.262C63.7635 444.262 31.8373 411.362 31.8373 370.579C31.8373 329.795 63.7635 296.895 104.547 296.895C126.545 296.895 142.606 305.558 154.481 316.654L174.045 297.09C157.498 281.224 135.403 269.154 104.547 269.154C48.6764 269.154 1.66309 314.708 1.66309 370.579C1.66309 426.449 48.6764 472.003 104.547 472.003C134.722 472.003 157.498 462.074 175.311 443.581C193.61 425.281 199.255 399.585 199.255 378.755C199.255 372.233 198.477 365.517 197.601 360.553H104.547V387.612H170.833C168.886 404.549 163.533 416.132 155.649 424.016C146.11 433.652 131.023 444.262 104.547 444.262Z" fill="black"/>
</svg>
