<svg width="801" height="800" viewBox="0 0 801 800" fill="none" xmlns="http://www.w3.org/2000/svg">
<g clip-path="url(#clip0_249_183)">
<path d="M0.59375 326.842H28.4875V388.814H87.3172V326.842H115.247V478.964H87.3172V415.69H28.4875V478.964H0.59375V326.842Z" fill="black"/>
<path d="M203.614 429.416C203.614 442.15 193.239 452.513 180.508 452.513C167.772 452.513 157.403 442.15 157.403 429.416V363.922H130.95V429.416C130.95 456.739 153.183 478.964 180.508 478.964C207.827 478.964 230.058 456.739 230.058 429.416V363.922H203.614V429.416Z" fill="black"/>
<path d="M303.905 364.689C290.783 364.689 281.624 368.496 272.778 377.179V326.842H246.239V420.131C246.239 455.05 271.486 478.964 299.85 478.964C331.383 478.964 359.011 454.623 359.011 421.828C359.011 389.448 333.535 364.689 303.905 364.689ZM304.564 454.412C286.581 454.412 272.83 439.393 272.83 421.828C272.83 404.259 286.581 389.236 304.564 389.236C319.802 389.236 333.561 404.259 333.561 421.828C333.561 439.393 319.802 454.412 304.564 454.412Z" fill="black"/>
<path d="M403.584 371.374C403.584 358.034 412.473 353.804 422.204 353.804C430.039 353.804 440.406 359.729 447.172 366.926L464.52 346.612C455.85 334.974 438.289 326.931 423.898 326.931C395.115 326.931 374.376 343.649 374.376 371.374C374.376 422.796 437.653 406.496 437.653 435.284C437.653 444.162 428.979 451.999 419.039 451.999C403.373 451.999 398.292 444.381 391.1 436.337L371.839 456.226C384.12 471.253 399.351 478.874 417.553 478.874C444.85 478.874 466.859 461.945 466.859 435.488C466.859 378.354 403.584 396.132 403.584 371.374Z" fill="black"/>
<path d="M536.725 363.198C508.364 363.198 483.114 387.098 483.114 422.025V515.555H509.652V464.978C518.499 473.655 527.653 477.469 540.78 477.469C570.408 477.469 595.888 452.712 595.888 420.333C595.888 387.533 568.252 363.198 536.725 363.198ZM541.441 452.925C523.46 452.925 509.706 437.886 509.706 420.333C509.706 402.764 523.46 387.74 541.441 387.74C556.675 387.74 570.436 402.764 570.436 420.333C570.436 437.886 556.675 452.925 541.441 452.925Z" fill="black"/>
<path d="M791.233 454.412C775.58 454.412 771.136 447.643 771.136 437.27V391.351H795.467V368.076H771.136V337.389L744.269 349.448V442.984C744.269 466.9 760.769 478.964 783.401 478.964C786.787 478.964 791.448 478.745 793.99 478.118L800.551 453.996C797.589 454.201 794.205 454.412 791.233 454.412Z" fill="black"/>
<path d="M721.247 392.704C716.159 383.951 709.003 376.934 700.056 371.651C693.37 367.759 686.438 365.289 678.625 364.228V336.415C686.438 333.098 691.286 325.756 691.286 317.19C691.286 305.515 681.923 296.054 670.258 296.054C658.583 296.054 649.056 305.515 649.056 317.19C649.056 325.756 653.625 333.098 661.438 336.415V364.24C655.188 365.144 648.706 367.092 642.787 370.086C630.698 360.904 591.058 330.784 567.869 313.192C568.419 311.209 568.842 309.165 568.842 307.009C568.842 294.078 558.37 283.597 545.434 283.597C532.498 283.597 522.031 294.078 522.031 307.009C522.031 319.939 532.509 330.423 545.445 330.423C549.858 330.423 553.939 329.133 557.461 327.011L562.355 330.723L629.598 379.173C626.044 382.437 622.733 386.15 620.084 390.315C614.717 398.808 611.438 408.151 611.438 418.344V420.47C611.438 427.625 612.797 434.379 615.112 440.725C617.152 446.265 620.133 451.303 623.825 455.858L601.508 478.229C599.528 477.5 597.448 477.1 595.278 477.1C590.447 477.1 585.916 478.987 582.498 482.398C579.078 485.819 577.205 490.361 577.205 495.195C577.206 500.028 579.089 504.57 582.508 507.987C585.925 511.406 590.467 513.29 595.302 513.29C600.136 513.29 604.68 511.406 608.1 507.987C611.513 504.57 613.397 500.026 613.397 495.195C613.397 493.325 613.108 491.5 612.564 489.765L635.631 466.695C638.794 468.879 642.209 470.719 645.881 472.304C653.123 475.436 661.117 477.344 669.866 477.344H671.469C681.141 477.344 690.264 475.072 698.841 470.425C707.878 465.514 714.952 458.798 720.295 450.225C725.667 441.628 728.625 432.129 728.625 421.679V421.158C728.625 410.878 726.245 401.394 721.247 392.704ZM693.062 441.1C686.802 448.058 679.605 452.344 671.469 452.344H670.128C665.481 452.344 660.936 451.059 656.486 448.723C651.47 446.151 647.658 442.483 644.537 437.837C641.312 433.278 639.563 428.3 639.563 423.022V421.419C639.563 416.229 640.558 411.309 643.067 406.662C645.75 401.583 649.373 397.633 654.192 394.492C658.923 391.373 663.977 389.844 669.605 389.844H670.128C675.231 389.844 680.063 390.85 684.622 393.183C689.267 395.67 693.062 399.069 696.005 403.539C698.862 408.011 700.563 412.834 701.109 418.089C701.195 419.181 701.239 420.3 701.239 421.369C701.239 428.5 698.514 435.104 693.062 441.1Z" fill="black"/>
</g>
<defs>
<clipPath id="clip0_249_183">
<rect width="800" height="800" fill="white" transform="translate(0.5)"/>
</clipPath>
</defs>
</svg>
