<svg width="1733" height="360" viewBox="0 0 1733 360" fill="none" xmlns="http://www.w3.org/2000/svg">
<g clip-path="url(#clip0_249_49)">
<path opacity="0.993" fill-rule="evenodd" clip-rule="evenodd" d="M359.034 -0.274414C359.399 -0.274414 359.764 -0.274414 360.129 -0.274414C351.903 40.6391 339.762 80.3343 323.706 118.811C304.921 160.193 278.357 195.773 244.012 225.549C247.093 234.621 247.55 243.859 245.381 253.262C241.667 269.305 234.364 283.39 223.472 295.518C208.764 311.362 191.875 324.258 172.807 334.207C152.451 344.935 131.272 353.441 109.271 359.726C108.724 359.726 108.176 359.726 107.628 359.726C113.437 337.692 120.558 316.107 128.99 294.969C137.834 288.798 146.597 282.487 155.28 276.037C161.755 270.919 167.963 265.523 173.903 259.848C174.991 259.483 175.904 258.843 176.642 257.927C175.257 258.254 173.98 258.894 172.807 259.848C151.32 265.365 131.602 261.615 113.653 248.598C96.4985 232.545 91.4775 213.429 98.5908 191.25C89.1634 204.623 80.3089 218.342 72.0262 232.409C61.0268 237.186 49.8898 241.667 38.615 245.854C25.7157 249.862 12.7529 253.612 -0.273438 257.104C-0.273438 256.738 -0.273438 256.372 -0.273438 256.006C8.6709 223.162 22.8204 192.796 42.1752 164.909C51.3952 152.744 62.0757 142.042 74.2171 132.805C87.7114 123.999 102.5 118.969 118.583 117.713C123.777 118.017 128.889 118.657 133.919 119.634C162.1 84.2581 196.79 57.3678 237.987 38.9634C266.881 26.1421 296.641 15.7152 327.266 7.6829C337.924 5.01315 348.514 2.36071 359.034 -0.274414ZM251.68 62.8353C270.313 62.5149 283.915 70.5638 292.485 86.9817C299.531 105.848 295.606 122.037 280.709 135.549C262.815 147.77 245.288 147.221 228.128 133.902C213.939 119.341 211.109 102.785 219.638 84.2378C226.91 71.9533 237.591 64.8192 251.68 62.8353Z" fill="black"/>
<path opacity="0.983" fill-rule="evenodd" clip-rule="evenodd" d="M511.301 -0.274414C513.857 -0.274414 516.413 -0.274414 518.969 -0.274414C538.803 4.13871 548.207 16.5778 547.177 37.0427C542.39 57.0589 529.701 66.1138 509.11 64.2073C494.468 60.8789 485.796 51.8243 483.093 37.0427C482.062 16.5848 491.464 4.14584 511.301 -0.274414Z" fill="#3CF26A"/>
<path opacity="0.985" fill-rule="evenodd" clip-rule="evenodd" d="M823.504 -0.274414C825.875 -0.274414 828.252 -0.274414 830.624 -0.274414C851.082 4.29743 860.486 17.1023 858.832 38.1402C854.85 54.9384 844.257 63.7189 827.064 64.4817C812.878 64.2342 802.833 57.6488 796.939 44.7256C791.571 27.5596 796.227 13.9315 810.906 3.84144C814.981 1.86528 819.182 0.493325 823.504 -0.274414Z" fill="#3CF26A"/>
<path opacity="0.992" fill-rule="evenodd" clip-rule="evenodd" d="M1490.63 -0.274414C1504.33 -0.274414 1518.02 -0.274414 1531.71 -0.274414C1536.52 0.728883 1539.53 3.65571 1540.75 8.50607C1541.3 94.6953 1541.11 180.854 1540.2 266.982C1538.47 270.189 1535.82 272.292 1532.26 273.293C1518.39 273.659 1504.51 273.659 1490.63 273.293C1486.89 272.563 1484.25 270.459 1482.69 266.982C1482.01 261.717 1481.64 256.412 1481.6 251.067C1472.12 266.479 1458.34 275.351 1440.24 277.683C1413.37 282.34 1389.45 276.121 1368.49 259.024C1350.5 240.99 1340.74 219.13 1339.19 193.445C1336.28 163.365 1343.77 136.292 1361.64 112.226C1377.34 94.1625 1397.15 83.6446 1421.07 80.6707C1440.97 78.9761 1458.86 84.0984 1474.75 96.0366C1477.36 98.4331 1479.63 101.085 1481.6 103.994C1481.78 71.9819 1481.96 39.9695 1482.14 7.95729C1483.51 3.6653 1486.34 0.921401 1490.63 -0.274414ZM1432.57 140.762C1452.46 140.06 1466.6 148.658 1475.02 166.555C1480.98 184.679 1476.87 200.136 1462.7 212.927C1445.08 225.254 1427.74 224.888 1410.66 211.829C1395.9 196.948 1393.07 180.027 1402.18 161.067C1409.34 149.762 1419.47 142.994 1432.57 140.762Z" fill="#3CF26A"/>
<path opacity="0.989" fill-rule="evenodd" clip-rule="evenodd" d="M1732.73 208.811C1732.73 212.47 1732.73 216.128 1732.73 219.787C1729.03 250.483 1712.05 269.416 1681.79 276.586C1650.26 283.624 1620.14 279.782 1591.41 265.061C1580.96 258.796 1574.02 249.833 1570.6 238.171C1570.54 235.546 1571.64 233.534 1573.89 232.134C1575.93 230.635 1578.13 229.354 1580.46 228.293C1592.19 224.211 1604.06 220.552 1616.06 217.317C1617.78 216.884 1619.42 217.067 1620.99 217.866C1623.93 221.73 1627.4 225.023 1631.4 227.744C1634.83 229.518 1638.48 230.433 1642.35 230.488C1648.63 230.719 1654.83 230.17 1660.97 228.842C1669 225.966 1671.82 220.386 1669.46 212.104C1667.98 210.126 1666.06 208.754 1663.71 207.988C1654.84 206.122 1645.9 204.659 1636.87 203.598C1622.57 201.017 1609.06 196.261 1596.34 189.33C1580.67 179.515 1572.82 165.246 1572.79 146.525C1574.06 116.168 1588.84 95.6801 1617.16 85.0612C1646.2 75.0636 1673.96 77.8075 1700.41 93.293C1710.34 99.9491 1717.92 108.639 1723.14 119.36C1725.23 124.969 1723.49 128.902 1717.94 131.159C1706.24 134.894 1694.28 137.363 1682.06 138.567C1677.37 138.643 1673.62 136.722 1670.83 132.805C1659.92 125.621 1648.79 125.255 1637.42 131.708C1631.9 136.205 1631.07 141.418 1634.96 147.348C1636.94 149.332 1639.22 150.887 1641.8 152.012C1646.05 153.626 1650.44 154.724 1654.95 155.305C1665.24 156.103 1675.46 157.383 1685.62 159.147C1702.57 163.101 1715.99 172.155 1725.88 186.311C1729.68 193.425 1731.96 200.925 1732.73 208.811Z" fill="#3CF26A"/>
<path opacity="0.991" fill-rule="evenodd" clip-rule="evenodd" d="M1190.48 80.3963C1208.28 79.1841 1224.71 83.2999 1239.77 92.7439C1244.25 95.7622 1247.99 99.512 1251 103.994C1251.06 99.9269 1251.43 95.9021 1252.1 91.9207C1253.65 88.4431 1256.3 86.3396 1260.04 85.6097C1273.73 85.2437 1287.43 85.2437 1301.12 85.6097C1305.71 86.7397 1308.73 89.5747 1310.16 94.1158C1310.52 151.006 1310.52 207.896 1310.16 264.787C1308.79 269.085 1305.96 271.921 1301.67 273.293C1287.03 273.822 1272.43 273.639 1257.85 272.744C1254.8 271.338 1252.71 269.052 1251.55 265.884C1251.37 260.945 1251.18 256.006 1251 251.067C1242.11 265.546 1229.24 274.234 1212.39 277.134C1187.69 282.099 1164.87 277.709 1143.92 263.963C1125.61 249.15 1114.38 230.034 1110.24 206.616C1104.05 174.453 1109.71 144.637 1127.22 117.165C1143.11 96.0755 1164.19 83.8191 1190.48 80.3963ZM1201.98 140.762C1221.33 139.951 1235.29 148.182 1243.88 165.457C1250.39 183.924 1246.46 199.747 1232.11 212.927C1214.8 225.126 1197.64 224.943 1180.62 212.378C1167.52 200.226 1163.42 185.5 1168.3 168.201C1174.41 152.641 1185.64 143.495 1201.98 140.762Z" fill="#3CF26A"/>
<path opacity="0.991" fill-rule="evenodd" clip-rule="evenodd" d="M666.855 80.9447C702.813 80.2225 731.568 94.1253 753.121 122.652C772.155 151.615 775.989 182.529 764.624 215.396C747.113 255.688 716.347 276.908 672.332 279.054C637.321 277.938 609.842 263.121 589.899 234.603C571.896 205.15 568.976 174.235 581.136 141.859C594.522 112.172 616.886 92.8736 648.232 83.963C654.46 82.5636 660.665 81.5577 666.855 80.9447ZM665.759 140.213C686.6 138.438 701.296 147.036 709.851 166.006C715.487 185.47 710.284 201.293 694.241 213.475C676.467 223.278 659.849 221.632 644.398 208.536C630.081 192.105 628.711 174.636 640.29 156.128C646.934 147.816 655.424 142.511 665.759 140.213Z" fill="black"/>
<path opacity="0.992" fill-rule="evenodd" clip-rule="evenodd" d="M1003.16 80.9456C1036.71 80.135 1060.35 94.9521 1074.09 125.397C1076.46 131.969 1077.92 138.737 1078.47 145.702C1078.84 184.665 1078.84 223.629 1078.47 262.592C1077.1 268.354 1073.54 271.921 1067.79 273.293C1055.19 273.659 1042.59 273.659 1030 273.293C1024.89 272.203 1021.52 269.185 1019.86 264.238C1019.68 235.884 1019.5 207.531 1019.31 179.177C1019.1 170.569 1017.27 162.337 1013.84 154.482C1008.35 146.43 1000.69 142.589 990.833 142.958C979.638 142.527 971.241 147.1 965.638 156.677C961.459 163.393 959.268 170.71 959.065 178.629C958.884 206.982 958.698 235.336 958.517 263.69C957.077 268.94 953.698 272.141 948.385 273.293C935.787 273.659 923.189 273.659 910.592 273.293C905.081 271.981 901.521 268.597 899.911 263.141C899.544 207.348 899.544 151.556 899.911 95.7627C901.51 90.3215 905.071 86.9372 910.592 85.6102C923.009 85.2442 935.42 85.2442 947.837 85.6102C956.25 87.8937 959.991 93.4732 959.065 102.348C971.252 89.978 985.948 82.8438 1003.16 80.9456Z" fill="black"/>
<path opacity="0.993" fill-rule="evenodd" clip-rule="evenodd" d="M499.251 359.726C486.105 359.726 472.96 359.726 459.814 359.726C455.898 358.084 453.433 355.157 452.42 350.946C451.895 338.113 452.078 325.308 452.968 312.531C454.155 309.879 456.072 307.958 458.719 306.769C466.26 306.938 473.38 305.291 480.08 301.83C482.199 299.89 484.116 297.787 485.831 295.519C486.905 292.678 487.636 289.751 488.022 286.738C488.205 222.897 488.388 159.055 488.57 95.2138C490.073 90.9635 492.903 87.9452 497.06 86.159C503.968 85.5405 510.906 85.2661 517.873 85.3358C524.84 85.2661 531.778 85.5405 538.687 86.159C543.08 87.9979 545.91 91.199 547.176 95.7626C547.542 163.994 547.542 232.226 547.176 300.458C544.735 323.379 533.871 341.032 514.587 353.415C509.648 356.127 504.536 358.231 499.251 359.726Z" fill="black"/>
<path opacity="0.986" fill-rule="evenodd" clip-rule="evenodd" d="M808.168 85.3352C820.585 85.2435 833.002 85.3352 845.413 85.6095C850.825 86.4569 854.385 89.4752 856.094 94.6644C856.997 150.075 857.184 205.502 856.641 260.945C856.017 267.608 852.457 271.724 845.961 273.292C833.363 273.659 820.765 273.659 808.168 273.292C802.417 271.921 798.856 268.353 797.487 262.591C797.12 207.347 797.12 152.104 797.487 96.8595C798.709 90.7884 802.269 86.9469 808.168 85.3352Z" fill="black"/>
<path opacity="0.992" fill-rule="evenodd" clip-rule="evenodd" d="M172.807 259.848C173.173 259.848 173.537 259.848 173.903 259.848C167.963 265.523 161.755 270.919 155.28 276.037C146.597 282.488 137.833 288.798 128.989 294.97C100.497 313.448 69.8247 327.167 36.9717 336.128C43.2017 299.657 54.8867 265.084 72.026 232.409C80.3087 218.342 89.1632 204.623 98.5907 191.25C91.4774 213.429 96.4984 232.545 113.653 248.598C131.601 261.615 151.32 265.365 172.807 259.848Z" fill="#3CF26B"/>
<path fill-rule="evenodd" clip-rule="evenodd" d="M173.902 259.847C173.537 259.847 173.172 259.847 172.807 259.847C173.979 258.894 175.257 258.254 176.641 257.927C175.903 258.843 174.99 259.483 173.902 259.847Z" fill="#8BF7A2"/>
</g>
<defs>
<clipPath id="clip0_249_49">
<rect width="1733" height="360" fill="white"/>
</clipPath>
</defs>
</svg>
