<svg width="1734" height="360" viewBox="0 0 1734 360" fill="none" xmlns="http://www.w3.org/2000/svg">
<g clip-path="url(#clip0_249_74)">
<mask id="mask0_249_74" style="mask-type:luminance" maskUnits="userSpaceOnUse" x="0" y="0" width="1734" height="360">
<path d="M1733.5 0H0.5V360H1733.5V0Z" fill="white"/>
</mask>
<g mask="url(#mask0_249_74)">
<path opacity="0.993" fill-rule="evenodd" clip-rule="evenodd" d="M359.534 -0.274414C359.899 -0.274414 360.264 -0.274414 360.629 -0.274414C352.403 40.6391 340.262 80.3343 324.206 118.811C305.421 160.193 278.857 195.773 244.512 225.549C247.593 234.621 248.05 243.859 245.881 253.262C242.167 269.305 234.864 283.39 223.972 295.518C209.264 311.362 192.375 324.258 173.307 334.207C152.951 344.935 131.772 353.441 109.771 359.726C109.224 359.726 108.676 359.726 108.128 359.726C113.937 337.692 121.058 316.107 129.49 294.969C138.334 288.798 147.097 282.487 155.78 276.037C162.255 270.919 168.463 265.523 174.403 259.848C175.491 259.483 176.404 258.843 177.142 257.927C175.757 258.254 174.48 258.894 173.307 259.848C151.82 265.365 132.102 261.615 114.153 248.598C96.9985 232.545 91.9775 213.429 99.0908 191.25C89.6634 204.623 80.8089 218.342 72.5262 232.409C61.5268 237.186 50.3898 241.667 39.115 245.854C26.2157 249.862 13.2529 253.612 0.226562 257.104C0.226562 256.738 0.226562 256.372 0.226562 256.006C9.1709 223.162 23.3204 192.796 42.6752 164.909C51.8952 152.744 62.5757 142.042 74.7171 132.805C88.2114 123.999 103 118.969 119.083 117.713C124.277 118.017 129.389 118.657 134.419 119.634C162.6 84.2581 197.29 57.3678 238.487 38.9634C267.381 26.1421 297.141 15.7152 327.766 7.6829C338.424 5.01315 349.014 2.36071 359.534 -0.274414ZM252.18 62.8353C270.813 62.5149 284.415 70.5638 292.985 86.9817C300.031 105.848 296.106 122.037 281.209 135.549C263.315 147.77 245.788 147.221 228.628 133.902C214.439 119.341 211.609 102.785 220.138 84.2378C227.41 71.9533 238.091 64.8192 252.18 62.8353Z" fill="black"/>
<path opacity="0.983" fill-rule="evenodd" clip-rule="evenodd" d="M511.801 -0.274414C514.357 -0.274414 516.913 -0.274414 519.469 -0.274414C539.303 4.13871 548.707 16.5778 547.677 37.0427C542.89 57.0589 530.201 66.1138 509.61 64.2073C494.968 60.8789 486.296 51.8243 483.593 37.0427C482.562 16.5848 491.964 4.14584 511.801 -0.274414Z" fill="black"/>
<path opacity="0.985" fill-rule="evenodd" clip-rule="evenodd" d="M824.004 -0.274414C826.375 -0.274414 828.752 -0.274414 831.124 -0.274414C851.582 4.29743 860.986 17.1023 859.332 38.1402C855.35 54.9384 844.757 63.7189 827.564 64.4817C813.378 64.2342 803.333 57.6488 797.439 44.7256C792.071 27.5596 796.727 13.9315 811.406 3.84144C815.481 1.86528 819.682 0.493325 824.004 -0.274414Z" fill="black"/>
<path opacity="0.992" fill-rule="evenodd" clip-rule="evenodd" d="M1491.13 -0.274414C1504.83 -0.274414 1518.52 -0.274414 1532.21 -0.274414C1537.02 0.728883 1540.03 3.65571 1541.25 8.50607C1541.8 94.6953 1541.61 180.854 1540.7 266.982C1538.97 270.189 1536.32 272.292 1532.76 273.293C1518.89 273.659 1505.01 273.659 1491.13 273.293C1487.39 272.563 1484.75 270.459 1483.19 266.982C1482.51 261.717 1482.14 256.412 1482.1 251.067C1472.62 266.479 1458.84 275.351 1440.74 277.683C1413.87 282.34 1389.95 276.121 1368.99 259.024C1351 240.99 1341.24 219.13 1339.69 193.445C1336.78 163.365 1344.27 136.292 1362.14 112.226C1377.84 94.1625 1397.65 83.6446 1421.57 80.6707C1441.47 78.9761 1459.36 84.0984 1475.25 96.0366C1477.86 98.4331 1480.13 101.085 1482.1 103.994C1482.28 71.9819 1482.46 39.9695 1482.64 7.95729C1484.01 3.6653 1486.84 0.921401 1491.13 -0.274414ZM1433.07 140.762C1452.96 140.06 1467.1 148.658 1475.52 166.555C1481.48 184.679 1477.37 200.136 1463.2 212.927C1445.58 225.254 1428.24 224.888 1411.16 211.829C1396.4 196.948 1393.57 180.027 1402.68 161.067C1409.84 149.762 1419.97 142.994 1433.07 140.762Z" fill="black"/>
<path opacity="0.989" fill-rule="evenodd" clip-rule="evenodd" d="M1733.23 208.811C1733.23 212.47 1733.23 216.128 1733.23 219.787C1729.53 250.483 1712.55 269.416 1682.29 276.586C1650.76 283.624 1620.64 279.782 1591.91 265.061C1581.46 258.796 1574.52 249.833 1571.1 238.171C1571.04 235.546 1572.14 233.534 1574.39 232.134C1576.43 230.635 1578.63 229.354 1580.96 228.293C1592.69 224.211 1604.56 220.552 1616.56 217.317C1618.28 216.884 1619.92 217.067 1621.49 217.866C1624.43 221.73 1627.9 225.023 1631.9 227.744C1635.33 229.518 1638.98 230.433 1642.85 230.488C1649.13 230.719 1655.33 230.17 1661.47 228.842C1669.5 225.966 1672.32 220.386 1669.96 212.104C1668.48 210.126 1666.56 208.754 1664.21 207.988C1655.34 206.122 1646.4 204.659 1637.37 203.598C1623.07 201.017 1609.56 196.261 1596.84 189.33C1581.17 179.515 1573.32 165.246 1573.29 146.525C1574.56 116.168 1589.34 95.6801 1617.66 85.0612C1646.7 75.0636 1674.46 77.8075 1700.91 93.293C1710.84 99.9491 1718.42 108.639 1723.64 119.36C1725.73 124.969 1723.99 128.902 1718.44 131.159C1706.74 134.894 1694.78 137.363 1682.56 138.567C1677.87 138.643 1674.12 136.722 1671.33 132.805C1660.42 125.621 1649.29 125.255 1637.92 131.708C1632.4 136.205 1631.57 141.418 1635.46 147.348C1637.44 149.332 1639.72 150.887 1642.3 152.012C1646.55 153.626 1650.94 154.724 1655.45 155.305C1665.74 156.103 1675.96 157.383 1686.12 159.147C1703.07 163.101 1716.49 172.155 1726.38 186.311C1730.18 193.425 1732.46 200.925 1733.23 208.811Z" fill="black"/>
<path opacity="0.991" fill-rule="evenodd" clip-rule="evenodd" d="M1190.98 80.3963C1208.78 79.1841 1225.21 83.2999 1240.27 92.7439C1244.75 95.7622 1248.49 99.512 1251.5 103.994C1251.56 99.9269 1251.93 95.9021 1252.6 91.9207C1254.15 88.4431 1256.8 86.3396 1260.54 85.6097C1274.23 85.2437 1287.93 85.2437 1301.62 85.6097C1306.21 86.7397 1309.23 89.5747 1310.66 94.1158C1311.02 151.006 1311.02 207.896 1310.66 264.787C1309.29 269.085 1306.46 271.921 1302.17 273.293C1287.53 273.822 1272.93 273.639 1258.35 272.744C1255.3 271.338 1253.21 269.052 1252.05 265.884C1251.87 260.945 1251.68 256.006 1251.5 251.067C1242.61 265.546 1229.74 274.234 1212.89 277.134C1188.19 282.099 1165.37 277.709 1144.42 263.963C1126.11 249.15 1114.88 230.034 1110.74 206.616C1104.55 174.453 1110.21 144.637 1127.72 117.165C1143.61 96.0755 1164.69 83.8191 1190.98 80.3963ZM1202.48 140.762C1221.83 139.951 1235.79 148.182 1244.38 165.457C1250.89 183.924 1246.96 199.747 1232.61 212.927C1215.3 225.126 1198.14 224.943 1181.12 212.378C1168.02 200.226 1163.92 185.5 1168.8 168.201C1174.91 152.641 1186.14 143.495 1202.48 140.762Z" fill="black"/>
<path opacity="0.991" fill-rule="evenodd" clip-rule="evenodd" d="M667.355 80.9447C703.313 80.2225 732.068 94.1253 753.621 122.652C772.655 151.615 776.489 182.529 765.124 215.396C747.613 255.688 716.847 276.908 672.832 279.054C637.821 277.938 610.342 263.121 590.399 234.603C572.396 205.15 569.476 174.235 581.636 141.859C595.022 112.172 617.386 92.8736 648.732 83.963C654.96 82.5636 661.165 81.5577 667.355 80.9447ZM666.259 140.213C687.1 138.438 701.796 147.036 710.351 166.006C715.987 185.47 710.784 201.293 694.741 213.475C676.967 223.278 660.349 221.632 644.898 208.536C630.581 192.105 629.211 174.636 640.79 156.128C647.434 147.816 655.924 142.511 666.259 140.213Z" fill="black"/>
<path opacity="0.992" fill-rule="evenodd" clip-rule="evenodd" d="M1003.66 80.9456C1037.21 80.135 1060.85 94.9521 1074.59 125.397C1076.96 131.969 1078.42 138.737 1078.97 145.702C1079.34 184.665 1079.34 223.629 1078.97 262.592C1077.6 268.354 1074.04 271.921 1068.29 273.293C1055.69 273.659 1043.09 273.659 1030.5 273.293C1025.39 272.203 1022.02 269.185 1020.36 264.238C1020.18 235.884 1020 207.531 1019.81 179.177C1019.6 170.569 1017.77 162.337 1014.34 154.482C1008.85 146.43 1001.19 142.589 991.333 142.958C980.138 142.527 971.741 147.1 966.138 156.677C961.959 163.393 959.768 170.71 959.565 178.629C959.384 206.982 959.198 235.336 959.017 263.69C957.577 268.94 954.198 272.141 948.885 273.293C936.287 273.659 923.689 273.659 911.092 273.293C905.581 271.981 902.021 268.597 900.411 263.141C900.044 207.348 900.044 151.556 900.411 95.7627C902.01 90.3215 905.571 86.9372 911.092 85.6102C923.509 85.2442 935.92 85.2442 948.337 85.6102C956.75 87.8937 960.491 93.4732 959.565 102.348C971.752 89.978 986.448 82.8438 1003.66 80.9456Z" fill="black"/>
<path opacity="0.993" fill-rule="evenodd" clip-rule="evenodd" d="M499.751 359.726C486.605 359.726 473.46 359.726 460.314 359.726C456.398 358.084 453.933 355.157 452.92 350.946C452.395 338.113 452.578 325.308 453.468 312.531C454.655 309.879 456.572 307.958 459.219 306.769C466.76 306.938 473.88 305.291 480.58 301.83C482.699 299.89 484.616 297.787 486.331 295.519C487.405 292.678 488.136 289.751 488.522 286.738C488.705 222.897 488.888 159.055 489.07 95.2138C490.573 90.9635 493.403 87.9452 497.56 86.159C504.468 85.5405 511.406 85.2661 518.373 85.3358C525.34 85.2661 532.278 85.5405 539.187 86.159C543.58 87.9979 546.41 91.199 547.676 95.7626C548.042 163.994 548.042 232.226 547.676 300.458C545.235 323.379 534.371 341.032 515.087 353.415C510.148 356.127 505.036 358.231 499.751 359.726Z" fill="black"/>
<path opacity="0.986" fill-rule="evenodd" clip-rule="evenodd" d="M808.668 85.3352C821.085 85.2435 833.502 85.3352 845.913 85.6095C851.325 86.4569 854.885 89.4752 856.594 94.6644C857.497 150.075 857.684 205.502 857.141 260.945C856.517 267.608 852.957 271.724 846.461 273.292C833.863 273.659 821.265 273.659 808.668 273.292C802.917 271.921 799.356 268.353 797.987 262.591C797.62 207.347 797.62 152.104 797.987 96.8595C799.209 90.7884 802.769 86.9469 808.668 85.3352Z" fill="black"/>
<path opacity="0.992" fill-rule="evenodd" clip-rule="evenodd" d="M173.307 259.848C173.673 259.848 174.037 259.848 174.403 259.848C168.463 265.523 162.255 270.919 155.78 276.037C147.097 282.488 138.333 288.798 129.489 294.97C100.997 313.448 70.3247 327.167 37.4717 336.128C43.7017 299.657 55.3867 265.084 72.526 232.409C80.8087 218.342 89.6632 204.623 99.0907 191.25C91.9774 213.429 96.9984 232.545 114.153 248.598C132.101 261.615 151.82 265.365 173.307 259.848Z" fill="black"/>
<path fill-rule="evenodd" clip-rule="evenodd" d="M174.402 259.847C174.037 259.847 173.672 259.847 173.307 259.847C174.479 258.894 175.757 258.254 177.141 257.927C176.403 258.843 175.49 259.483 174.402 259.847Z" fill="black"/>
</g>
</g>
<defs>
<clipPath id="clip0_249_74">
<rect width="1733" height="360" fill="white" transform="translate(0.5)"/>
</clipPath>
</defs>
</svg>
