<svg width="1201" height="800" viewBox="0 0 1201 800" fill="none" xmlns="http://www.w3.org/2000/svg">
<path d="M169.204 429.659C169.204 440.351 171.551 448.559 174.618 453.525C178.64 460.029 184.638 462.785 190.753 462.785C198.64 462.785 205.855 460.828 219.759 441.597C230.899 426.183 244.024 404.547 252.856 390.983L267.812 368.004C278.201 352.045 290.227 334.304 304.014 322.279C315.271 312.464 327.413 307.011 339.633 307.011C360.149 307.011 379.691 318.9 394.647 341.198C411.015 365.618 418.961 396.378 418.961 428.121C418.961 446.991 415.241 460.857 408.912 471.811C402.797 482.405 390.879 492.989 370.83 492.989V462.785C387.997 462.785 392.281 447.011 392.281 428.958C392.281 403.233 386.283 374.684 373.07 354.284C363.693 339.815 351.541 330.974 338.172 330.974C323.713 330.974 312.077 341.879 299 361.324C292.048 371.655 284.91 384.245 276.897 398.452L268.075 414.08C250.353 445.501 245.865 452.658 237.004 464.469C221.473 485.151 208.211 492.989 190.753 492.989C170.042 492.989 156.945 484.021 148.834 470.506C142.213 459.494 138.961 445.044 138.961 428.578L169.204 429.659Z" fill="black"/>
<path d="M162.809 343.33C176.674 321.957 196.684 307.011 219.634 307.011C232.925 307.011 246.139 310.945 259.936 322.21C275.029 334.528 291.114 354.81 311.182 388.238L318.378 400.234C335.749 429.172 345.632 444.06 351.416 451.081C358.855 460.097 364.065 462.785 370.832 462.785C387.998 462.785 392.283 447.011 392.283 428.958L418.962 428.121C418.962 446.991 415.243 460.857 408.914 471.811C402.799 482.405 390.881 492.989 370.832 492.989C358.368 492.989 347.327 490.282 335.116 478.763C325.73 469.922 314.756 454.216 306.314 440.097L281.202 398.15C268.602 377.098 257.044 361.402 250.355 354.294C243.159 346.65 233.909 337.42 219.147 337.42C207.2 337.42 197.054 345.803 188.563 358.627L162.809 343.33Z" fill="black"/>
<path d="M219.146 337.42C207.199 337.42 197.052 345.803 188.562 358.627C176.556 376.748 169.204 403.739 169.204 429.659C169.204 440.351 171.551 448.559 174.618 453.525L148.834 470.506C142.213 459.494 138.961 445.044 138.961 428.578C138.961 398.637 147.179 367.429 162.807 343.33C176.673 321.957 196.682 307.011 219.633 307.011L219.146 337.42Z" fill="black"/>
<path d="M477.754 312.892H512.739L572.223 420.506L631.717 312.892H665.943V489.717H637.403V354.196L585.232 448.043H558.455L506.293 354.196V489.717H477.754V312.892ZM755.368 378.821C734.901 378.821 722.574 394.226 719.623 413.301H789.088C787.657 393.651 776.323 378.821 755.368 378.821ZM691.327 424.167C691.327 384.031 717.267 354.82 755.865 354.82C793.83 354.82 816.498 383.661 816.498 426.309V434.148H719.623C723.061 454.897 736.829 468.88 759.029 468.88C776.741 468.88 787.812 463.476 798.309 453.593L813.47 472.161C799.185 485.297 781.016 492.872 758.017 492.872C716.235 492.872 691.327 462.405 691.327 424.167ZM851.103 381.353H824.833V357.984H851.103V319.338H878.64V357.984H918.552V381.353H878.64V440.584C878.64 460.808 885.105 467.994 900.996 467.994C908.25 467.994 912.408 467.371 918.552 466.348V489.464C910.899 491.626 903.596 492.619 895.69 492.619C865.962 492.619 851.103 476.377 851.103 443.865V381.353ZM1034.5 404.08C1028.97 390.117 1016.63 379.834 998.504 379.834C974.94 379.834 959.857 396.553 959.857 423.787C959.857 450.34 973.742 467.867 997.374 467.867C1015.95 467.867 1029.21 457.059 1034.5 443.612V404.08ZM1062.04 489.717H1035.01V471.275C1027.45 482.132 1013.7 492.872 991.435 492.872C955.621 492.872 931.688 462.892 931.688 423.787C931.688 384.313 956.196 354.82 992.953 354.82C1011.12 354.82 1025.38 362.083 1035.01 374.907V357.984H1062.04V489.717Z" fill="black"/>
</svg>
