<svg width="801" height="800" viewBox="0 0 801 800" fill="none" xmlns="http://www.w3.org/2000/svg">
<g clip-path="url(#clip0_249_210)">
<path d="M661.053 342.693L662.583 432.473H661.817L635.84 342.693H593.05V455.776H621.32L619.793 362.943H620.56L648.447 455.776H689.327V342.693H661.053ZM122.753 342.693L101.36 456.926H132.307L147.97 353.01H148.733L164.017 456.923H194.58L173.567 342.693H122.753ZM295.437 342.693L281.303 429.8H280.537L266.403 342.693H219.793L217.5 456.926H246.153L246.92 354.153H247.3L266.4 456.923H295.437L314.54 354.156H315.307L316.067 456.923H344.72L342.047 342.693H295.437ZM53.2233 424.45C54.3667 427.123 53.9867 430.946 53.6033 432.856C52.84 436.676 50.1667 440.496 42.5233 440.496C35.2667 440.496 31.0633 436.296 31.0633 430.18V419.103H0.5V427.89C0.5 453.486 20.7467 461.126 42.1433 461.126C62.7733 461.126 79.9633 453.866 82.64 435.146C84.1667 425.213 83.02 418.72 82.64 416.426C77.29 392.36 33.74 385.483 30.68 372.11C30.3 369.816 30.3 367.526 30.68 365.996C31.4467 362.176 34.12 358.356 40.9967 358.356C47.8733 358.356 51.6967 362.556 51.6967 368.673V375.55H80.3467V367.526C80.3467 342.693 57.8067 338.873 41.76 338.873C21.5133 338.873 4.70333 345.75 1.64667 364.086C0.88 369.053 0.5 373.64 2.02667 379.37C6.61333 403.056 47.4967 409.933 53.2233 424.45ZM424.953 424.45C426.097 427.126 425.713 430.563 425.333 432.856C424.567 436.676 421.893 440.496 414.253 440.496C406.993 440.496 402.793 436.296 402.793 430.18V419.103H372.227V427.89C372.227 453.103 392.093 460.746 413.49 460.746C434.12 460.746 450.93 453.87 453.603 434.766C455.133 424.833 453.987 418.72 453.603 416.046C449.02 392.36 405.847 385.1 402.793 372.113C402.41 369.82 402.41 367.526 402.793 365.996C403.557 362.176 406.23 358.356 413.107 358.356C419.6 358.356 423.807 362.556 423.807 368.673V375.55H452.073V367.526C452.073 342.693 429.917 338.873 413.873 338.873C393.623 338.873 377.193 345.366 374.14 364.086C373.373 369.053 373.373 373.64 374.52 379.37C379.107 403.056 419.22 409.55 424.953 424.45ZM521.227 439.733C529.25 439.733 531.54 434.383 532.303 431.326C532.687 430.183 532.687 428.27 532.687 427.126V342.693H561.72V424.833C561.72 427.126 561.72 431.326 561.34 432.473C559.43 453.87 542.62 460.746 521.607 460.746C500.597 460.746 483.787 453.87 481.873 432.473C481.873 431.326 481.493 427.126 481.493 424.833V342.693H510.527V427.126C510.527 428.653 510.527 430.18 510.91 431.326C510.91 434.383 513.203 439.733 521.227 439.733ZM759.62 438.586C768.027 438.586 770.7 433.236 771.463 430.18C771.847 429.036 771.847 427.123 771.847 425.98V409.55H760.003V392.74H800.5V423.306C800.5 425.596 800.5 427.123 800.117 430.946C798.207 451.956 780.25 459.216 760.003 459.216C739.753 459.216 721.8 451.956 719.89 430.946C719.507 427.123 719.507 425.596 719.507 423.303V375.17C719.507 373.256 719.89 369.436 719.89 367.526C722.563 346.13 739.757 339.253 760.003 339.253C780.25 339.253 797.827 346.13 800.117 367.526C800.5 370.963 800.5 375.166 800.5 375.166V378.986H771.847V372.493C771.847 372.493 771.847 369.816 771.463 368.29C771.083 365.616 768.79 359.886 760.003 359.886C751.6 359.886 749.303 365.233 748.543 368.29C748.16 369.816 748.16 371.73 748.16 373.64V425.98C748.16 427.506 748.16 429.033 748.543 430.18C748.543 433.236 751.6 438.586 759.62 438.586Z" fill="black"/>
</g>
<defs>
<clipPath id="clip0_249_210">
<rect width="800" height="800" fill="white" transform="translate(0.5)"/>
</clipPath>
</defs>
</svg>
