<svg xmlns="http://www.w3.org/2000/svg" width="120" height="29" viewBox="0 0 120 29" fill="none">
					<g clip-path="url(#clip0_68_2638)">
						<path d="M7.01584 6.29336H0V0.0388184H21.7309V6.29336H14.7075L14.7113 24.6242H7.01963L7.01584 6.29336Z" fill="#002852"></path>
						<path d="M28.1315 16.5925C27.2872 16.9993 26.3368 17.2342 25.3884 17.4339C23.8398 17.7686 23.0315 18.1404 23.0239 19.3406C23.0201 20.1654 23.9269 20.9939 25.1896 21.0013C26.7685 21.0087 28.0028 20.0914 28.1201 18.2384L28.1296 16.5906L28.1315 16.5925ZM34.782 20.6444C34.7725 21.9815 34.835 23.4924 35.5998 24.6279L28.5063 24.5872C28.3341 24.1064 28.2318 23.3852 28.2716 22.9062H28.1997C26.7174 24.5429 24.5725 25.0107 22.3235 24.9996C18.8136 24.9793 15.9096 23.3167 15.9286 19.5773C15.9626 13.9516 22.704 14.1957 26.2535 13.565C27.202 13.3986 28.1523 13.1286 28.158 11.9968C28.1656 10.7966 27.0108 10.3416 25.8882 10.3361C23.7471 10.3268 23.3173 11.3865 23.2795 12.1392L16.8183 12.1041C17.0568 7.09783 21.907 6.30076 26.227 6.3248C34.9334 6.37473 34.8444 9.90886 34.8217 13.3376L34.7801 20.6444H34.782Z" fill="#002852"></path>
						<path d="M45.4969 11.3754C43.0056 11.3625 42.4301 13.6575 42.4168 15.7473C42.4036 17.8741 42.9526 20.1765 45.4439 20.1913C47.9371 20.2043 48.5126 17.9092 48.5258 15.7825C48.5391 13.6908 47.9901 11.3884 45.4969 11.3754ZM35.8042 0H42.7557L42.7046 8.82146H42.7746C43.8366 7.31792 45.7013 6.43578 47.7743 6.44687C53.8814 6.48201 55.5019 11.5678 55.4773 15.7529C55.4508 20.2117 52.9273 25.1698 47.7686 25.1421C44.3629 25.1217 43.316 23.8475 42.4452 22.7083H42.3752L42.3619 24.6242H35.8042V0Z" fill="#002852"></path>
						<path d="M65.2344 4.98221C62.5992 4.96741 62.2338 7.4696 62.2225 9.3541C62.213 11.2404 62.5481 13.7815 65.1814 13.7981C67.8147 13.8111 68.182 11.2774 68.1933 9.38923C68.2047 7.50289 67.8677 4.997 65.2344 4.98221ZM65.1511 18.7359C58.3038 18.6971 55.2388 14.2549 55.271 9.31526C55.3013 4.37562 58.4154 0.0037242 65.2628 0.0444102C72.1102 0.0813974 75.1751 4.48843 75.1448 9.42992C75.1145 14.3677 72.0004 18.7766 65.153 18.7378" fill="#002852"></path>
						<path d="M82.4863 4.98216C79.853 4.96737 79.4877 7.46955 79.4763 9.3559C79.463 11.2423 79.8 13.7814 82.4333 13.7981C85.0647 13.8129 85.432 11.2774 85.4434 9.39104C85.4547 7.50469 85.1177 4.99696 82.4844 4.98401M82.4049 18.7377C75.5595 18.697 72.4964 14.2549 72.5267 9.31522C72.5532 4.37557 75.6693 0.00183199 82.5166 0.0425179C89.364 0.0813545 92.427 4.48838 92.3986 9.42803C92.3683 14.3677 89.2523 18.7747 82.4049 18.7377Z" fill="#002852"></path>
						<path d="M93.1482 0.0443726H99.952V24.6261H93.1482V0.0443726Z" fill="#002852"></path>
						<path d="M112.625 16.5333C111.78 16.9383 110.83 17.1732 109.883 17.3729C108.333 17.7077 107.526 18.0812 107.519 19.2815C107.513 20.1044 108.422 20.9329 109.685 20.9403C111.265 20.9477 112.5 20.0305 112.615 18.1774L112.625 16.5333ZM119.315 20.5816C119.309 21.9187 119.231 23.4888 120 24.6243H113.013C112.842 24.1434 112.723 23.3223 112.763 22.8433H112.693C111.208 24.48 109.065 24.9479 106.818 24.9368C103.307 24.9146 100.403 23.252 100.423 19.5126C100.458 13.8869 107.197 14.1328 110.747 13.5022C111.695 13.3358 112.645 13.0658 112.653 11.9339C112.66 10.7337 111.506 10.2806 110.381 10.2732C108.238 10.2621 107.812 11.3218 107.774 12.0764L101.309 12.0412C101.55 7.03314 106.402 6.23607 110.72 6.26381C119.428 6.31189 119.337 9.84417 119.317 13.2747V20.5816H119.315Z" fill="#002852"></path>
						<path d="M57.8778 18.7377C62.815 20.8922 67.9359 21.8484 73.5167 21.8798C79.3797 21.9131 83.8266 20.8312 89.4548 18.7377L89.4226 24.6705C84.385 27.1116 78.9216 28.4265 73.477 28.3969C67.544 28.3618 63.2675 27.1727 57.84 24.6705L57.8759 18.7377H57.8778Z" fill="#002852"></path>
					</g>
					<defs>
						<clipPath id="clip0_68_2638">
							<rect width="120" height="28.3969" fill="white"></rect>
						</clipPath>
					</defs>
				</svg>