<svg width="121" height="29" viewBox="0 0 121 29" fill="none" xmlns="http://www.w3.org/2000/svg">
<g clip-path="url(#clip0_249_197)">
<mask id="mask0_249_197" style="mask-type:luminance" maskUnits="userSpaceOnUse" x="0" y="0" width="121" height="29">
<path d="M120.5 0H0.5V28.3969H120.5V0Z" fill="white"/>
</mask>
<g mask="url(#mask0_249_197)">
<path d="M7.51584 6.2936H0.5V0.0390625H22.2309V6.2936H15.2075L15.2113 24.6244H7.51963L7.51584 6.2936Z" fill="black"/>
<path d="M28.6317 16.5924C27.7874 16.9992 26.837 17.2341 25.8886 17.4338C24.34 17.7685 23.5317 18.1403 23.5241 19.3405C23.5203 20.1653 24.4271 20.9938 25.6898 21.0012C27.2687 21.0086 28.503 20.0913 28.6203 18.2383L28.6298 16.5905L28.6317 16.5924ZM35.2822 20.6443C35.2727 21.9814 35.3352 23.4923 36.1 24.6278L29.0065 24.5871C28.8343 24.1063 28.732 23.3851 28.7718 22.9061H28.6999C27.2176 24.5428 25.0727 25.0106 22.8237 24.9995C19.3138 24.9792 16.4098 23.3166 16.4288 19.5772C16.4628 13.9515 23.2042 14.1956 26.7537 13.5649C27.7022 13.3985 28.6525 13.1285 28.6582 11.9967C28.6658 10.7965 27.511 10.3415 26.3884 10.336C24.2473 10.3267 23.8175 11.3864 23.7797 12.1391L17.3185 12.104C17.557 7.09777 22.4072 6.3007 26.7272 6.32474C35.4336 6.37467 35.3446 9.9088 35.3219 13.3375L35.2803 20.6443H35.2822Z" fill="black"/>
<path d="M45.9974 11.3754C43.5061 11.3625 42.9306 13.6575 42.9173 15.7473C42.9041 17.8741 43.4531 20.1765 45.9444 20.1913C48.4376 20.2043 49.0131 17.9092 49.0263 15.7825C49.0396 13.6908 48.4906 11.3884 45.9974 11.3754ZM36.3047 0H43.2562L43.2051 8.82146H43.2751C44.3371 7.31792 46.2018 6.43578 48.2748 6.44687C54.3819 6.48201 56.0024 11.5678 55.9778 15.7529C55.9513 20.2117 53.4278 25.1698 48.2691 25.1421C44.8634 25.1217 43.8165 23.8475 42.9457 22.7083H42.8757L42.8624 24.6242H36.3047V0Z" fill="black"/>
<path d="M65.7342 4.98203C63.099 4.96723 62.7336 7.46942 62.7223 9.35392C62.7128 11.2402 63.0479 13.7813 65.6812 13.7979C68.3145 13.8109 68.6818 11.2772 68.6931 9.38905C68.7045 7.50271 68.3675 4.99682 65.7342 4.98203ZM65.6509 18.7357C58.8036 18.6969 55.7386 14.2547 55.7708 9.31508C55.8011 4.37544 58.9152 0.00354105 65.7626 0.044227C72.61 0.0812142 75.6749 4.48825 75.6446 9.42974C75.6143 14.3675 72.5002 18.7764 65.6528 18.7376" fill="black"/>
<path d="M82.9862 4.98192C80.3529 4.96713 79.9876 7.46931 79.9762 9.35566C79.9629 11.2421 80.2999 13.7812 82.9332 13.7979C85.5646 13.8127 85.9319 11.2772 85.9433 9.3908C85.9546 7.50445 85.6176 4.99672 82.9843 4.98377M82.9048 18.7375C76.0594 18.6968 72.9963 14.2547 73.0266 9.31498C73.0531 4.37533 76.1692 0.00158789 83.0165 0.0422738C89.8639 0.0811104 92.9269 4.48814 92.8985 9.42779C92.8682 14.3675 89.7522 18.7745 82.9048 18.7375Z" fill="black"/>
<path d="M93.6484 0.0439453H100.452V24.6257H93.6484V0.0439453Z" fill="black"/>
<path d="M113.125 16.5329C112.28 16.9379 111.33 17.1728 110.383 17.3725C108.833 17.7073 108.026 18.0808 108.019 19.2811C108.013 20.104 108.922 20.9325 110.185 20.9399C111.765 20.9473 113 20.0301 113.115 18.177L113.125 16.5329ZM119.815 20.5812C119.809 21.9183 119.731 23.4884 120.5 24.6239H113.513C113.342 24.143 113.223 23.3219 113.263 22.8429H113.193C111.708 24.4796 109.565 24.9475 107.318 24.9364C103.807 24.9142 100.903 23.2516 100.923 19.5122C100.958 13.8865 107.697 14.1324 111.247 13.5018C112.195 13.3354 113.145 13.0654 113.153 11.9335C113.16 10.7333 112.006 10.2802 110.881 10.2728C108.738 10.2617 108.312 11.3214 108.274 12.076L101.809 12.0408C102.05 7.03271 106.902 6.23564 111.22 6.26338C119.928 6.31146 119.837 9.84374 119.817 13.2743V20.5812H119.815Z" fill="black"/>
<path d="M58.3776 18.7373C63.3148 20.8918 68.4357 21.848 74.0165 21.8794C79.8795 21.9127 84.3264 20.8308 89.9546 18.7373L89.9224 24.6701C84.8848 27.1112 79.4214 28.4261 73.9768 28.3965C68.0438 28.3614 63.7673 27.1723 58.3398 24.6701L58.3757 18.7373H58.3776Z" fill="black"/>
</g>
</g>
<defs>
<clipPath id="clip0_249_197">
<rect width="120" height="29" fill="white" transform="translate(0.5)"/>
</clipPath>
</defs>
</svg>
