<svg xmlns="http://www.w3.org/2000/svg" id="a" viewBox="0 0 748.17 273.63"><g><path d="m284.98,43.31l-28.89,41.38h-87.35v102.19h72.35v-31.97h-26.91l-26.47-37.61h92.64v69.59l-29.12,41.38h-92.2l-29.56-41.38v-101.37l29.56-42.19h125.95Z" style="fill:#fff;"/><path d="m479.69,0l-87.28,228.25h-36.62l-70.58-184.94h39.9l48.87,126.72L433.87,14.78,479.69,0Z" style="fill:#fff;"/><path d="m618.7,43.31l-28.89,41.38h-87.35v32.6h97.27l-26.47,37.61h-70.8v87.07l-39.26,31.66V43.31h155.51Z" style="fill:#fff;"/></g><path d="m96.37,228.25h-37.32l-27.43-28.63v-31.47L0,135.14l31.62-33v-31.47l27.43-28.85h37.17l-27.33,28.75v37.19l-26.25,27.39,26.25,27.4v37.03l27.47,28.68Z" style="fill:#a6f750;"/><path d="m679.28,199.57v-37.03s26.25-27.4,26.25-27.4l-26.25-27.39v-37.19s-27.33-28.75-27.33-28.75h37.17s27.43,28.85,27.43,28.85v31.47s31.62,33,31.62,33l-31.62,33v31.47s-27.43,28.63-27.43,28.63h-37.32s27.47-28.68,27.47-28.68Z" style="fill:#a6f750;"/></svg>